<?xml version="1.0" encoding="UTF-8"?>
<svg width="15px" height="22px" viewBox="0 0 15 22" version="1.1" xmlns="http://www.w3.org/2000/svg" xmlns:xlink="http://www.w3.org/1999/xlink">
    <!-- Generator: Sketch 48.2 (47327) - http://www.bohemiancoding.com/sketch -->
    <title>calculator</title>
    <desc>Created with Sketch.</desc>
    <defs></defs>
    <g id="share" stroke="none" stroke-width="1" fill="none" fill-rule="evenodd" transform="translate(-736.000000, -127.000000)" opacity="0.9">
        <g id="nav" transform="translate(0.000000, 100.000000)" fill="#1C191A">
            <g id="text" transform="translate(516.000000, 26.000000)">
                <g id="calculator" transform="translate(220.000000, 1.000000)">
                    <g>
                        <path d="M1.5015,0.916666667 C1.17,0.916666667 0.9,1.19136111 0.9,1.529 L0.9,20.1901944 C0.9,20.5281389 1.17,20.8028333 1.5015,20.8028333 L13.2735,20.8028333 C13.605,20.8028333 13.8747,20.5281389 13.8747,20.1901944 L13.8747,1.529 C13.8747,1.19136111 13.605,0.916666667 13.2735,0.916666667 L1.5015,0.916666667 Z M13.2735,21.7195 L1.5015,21.7195 C0.6735,21.7195 0,21.0332222 0,20.1901944 L0,1.529 C0,0.685972222 0.6735,-1.42108547e-14 1.5015,-1.42108547e-14 L13.2735,-1.42108547e-14 C14.1012,-1.42108547e-14 14.7747,0.685972222 14.7747,1.529 L14.7747,20.1901944 C14.7747,21.0332222 14.1012,21.7195 13.2735,21.7195 Z" id="Fill-1"></path>
                        <polygon id="Fill-3" points="0.45 7.42958333 14.3247 7.42958333 14.3247 6.51291667 0.45 6.51291667"></polygon>
                        <path d="M14.10093,14.5540083 L9.23943,14.5540083 C8.99103,14.5540083 8.78943,14.3489806 8.78943,14.095675 C8.78943,13.8423694 8.99103,13.6373417 9.23943,13.6373417 L14.10093,13.6373417 C14.34933,13.6373417 14.55093,13.8423694 14.55093,14.095675 C14.55093,14.3489806 14.34933,14.5540083 14.10093,14.5540083" id="Fill-5"></path>
                        <path d="M5.56704,14.5540083 L0.67374,14.5540083 C0.42534,14.5540083 0.22374,14.3489806 0.22374,14.095675 C0.22374,13.8423694 0.42534,13.6373417 0.67374,13.6373417 L5.56704,13.6373417 C5.81544,13.6373417 6.01704,13.8423694 6.01704,14.095675 C6.01704,14.3489806 5.81544,14.5540083 5.56704,14.5540083" id="Fill-6"></path>
                        <path d="M7.38753,19.9507611 C7.13913,19.9507611 6.93753,19.7457333 6.93753,19.4924278 L6.93753,8.73992778 C6.93753,8.48662222 7.13913,8.28159444 7.38753,8.28159444 C7.63593,8.28159444 7.83753,8.48662222 7.83753,8.73992778 L7.83753,19.4924278 C7.83753,19.7457333 7.63593,19.9507611 7.38753,19.9507611" id="Fill-7"></path>
                        <path d="M10.18479,5.50311667 L2.77749,5.50311667 C2.37249,5.50311667 2.04279,5.16731111 2.04279,4.75481111 L2.04279,2.84722778 C2.04279,2.43472778 2.37249,2.09892222 2.77749,2.09892222 L12.09489,2.09892222 C12.50019,2.09892222 12.82959,2.43472778 12.82959,2.84722778 L12.82959,4.75481111 C12.82959,5.00781111 12.62829,5.21314444 12.37959,5.21314444 C12.13119,5.21314444 11.92959,5.00781111 11.92959,4.75481111 L11.92959,3.01558889 L2.94279,3.01558889 L2.94279,4.58645 L10.18479,4.58645 C10.43319,4.58645 10.63479,4.79147778 10.63479,5.04478333 C10.63479,5.29808889 10.43319,5.50311667 10.18479,5.50311667" id="Fill-8"></path>
                        <path d="M3.77259,12.5559806 C3.52419,12.5559806 3.32259,12.3509528 3.32259,12.0976472 L3.32259,9.11848056 C3.32259,8.865175 3.52419,8.66014722 3.77259,8.66014722 C4.02099,8.66014722 4.22259,8.865175 4.22259,9.11848056 L4.22259,12.0976472 C4.22259,12.3509528 4.02099,12.5559806 3.77259,12.5559806" id="Fill-9"></path>
                        <path d="M5.23509,11.0663972 L2.31009,11.0663972 C2.06169,11.0663972 1.86009,10.8613694 1.86009,10.6080639 C1.86009,10.3547583 2.06169,10.1497306 2.31009,10.1497306 L5.23509,10.1497306 C5.48349,10.1497306 5.68509,10.3547583 5.68509,10.6080639 C5.68509,10.8613694 5.48349,11.0663972 5.23509,11.0663972" id="Fill-10"></path>
                        <path d="M2.73843,19.2040444 C2.62323,19.2040444 2.50803,19.1594333 2.42013,19.0699056 C2.24463,18.89085 2.24463,18.6005722 2.42013,18.4215167 L4.48863,16.3150167 C4.66443,16.1359611 4.94913,16.1359611 5.12493,16.3150167 C5.30073,16.4937667 5.30073,16.78435 5.12493,16.9631 L3.05673,19.0699056 C2.96883,19.1594333 2.85363,19.2040444 2.73843,19.2040444" id="Fill-11"></path>
                        <path d="M4.80678,19.2040444 C4.69158,19.2040444 4.57638,19.1594333 4.48848,19.0699056 L2.42028,16.9631 C2.24448,16.78435 2.24448,16.4937667 2.42028,16.3150167 C2.59608,16.1359611 2.88078,16.1359611 3.05658,16.3150167 L5.12508,18.4215167 C5.30058,18.6005722 5.30058,18.89085 5.12508,19.0699056 C5.03718,19.1594333 4.92198,19.2040444 4.80678,19.2040444" id="Fill-12"></path>
                        <path d="M12.10344,11.0663972 L9.78474,11.0663972 C9.53634,11.0663972 9.33474,10.8613694 9.33474,10.6080639 C9.33474,10.3547583 9.53634,10.1497306 9.78474,10.1497306 L12.10344,10.1497306 C12.35184,10.1497306 12.55344,10.3547583 12.55344,10.6080639 C12.55344,10.8613694 12.35184,11.0663972 12.10344,11.0663972" id="Fill-13"></path>
                        <path d="M12.40344,17.2964 L9.48474,17.2964 C9.23634,17.2964 9.03474,17.0913722 9.03474,16.8380667 C9.03474,16.5847611 9.23634,16.3797333 9.48474,16.3797333 L12.40344,16.3797333 C12.65184,16.3797333 12.85344,16.5847611 12.85344,16.8380667 C12.85344,17.0913722 12.65184,17.2964 12.40344,17.2964" id="Fill-14"></path>
                        <path d="M12.40344,19.0050056 L9.48474,19.0050056 C9.23634,19.0050056 9.03474,18.7999778 9.03474,18.5466722 C9.03474,18.2933667 9.23634,18.0883389 9.48474,18.0883389 L12.40344,18.0883389 C12.65184,18.0883389 12.85344,18.2933667 12.85344,18.5466722 C12.85344,18.7999778 12.65184,19.0050056 12.40344,19.0050056" id="Fill-15"></path>
                    </g>
                </g>
            </g>
        </g>
    </g>
</svg>