<?xml version="1.0" encoding="UTF-8"?>
<svg width="119px" height="112px" viewBox="0 0 119 112" version="1.1" xmlns="http://www.w3.org/2000/svg" xmlns:xlink="http://www.w3.org/1999/xlink">
    <!-- Generator: Sketch 48.2 (47327) - http://www.bohemiancoding.com/sketch -->
    <title>chart</title>
    <desc>Created with Sketch.</desc>
    <defs></defs>
    <g id="landing" stroke="none" stroke-width="1" fill="none" fill-rule="evenodd" transform="translate(-234.000000, -564.000000)">
        <g id="business-development" transform="translate(119.000000, 564.000000)">
            <g id="chart-gray" transform="translate(115.000000, 0.000000)">
                <g id="Page-1">
                    <path d="M16.1740299,111.538892 C14.9346269,111.538892 13.9316418,110.534448 13.9316418,109.293241 L13.9316418,2.4705746 C13.9316418,1.22936825 14.9346269,0.223130159 16.1740299,0.223130159 C17.4134328,0.223130159 18.4164179,1.22936825 18.4164179,2.4705746 L18.4164179,109.293241 C18.4164179,110.534448 17.4134328,111.538892 16.1740299,111.538892" id="Fill-1" fill="#52585A"></path>
                    <path d="M16.1740299,111.538892 C14.9346269,111.538892 13.9316418,110.534448 13.9316418,109.293241 L13.9316418,2.4705746 C13.9316418,1.22936825 14.9346269,0.223130159 16.1740299,0.223130159 C17.4134328,0.223130159 18.4164179,1.22936825 18.4164179,2.4705746 L18.4164179,109.293241 C18.4164179,110.534448 17.4134328,111.538892 16.1740299,111.538892" id="Stroke-3"></path>
                    <path d="M8.57426866,102.304281 L2.46680597,102.304281 C1.22740299,102.304281 0.22441791,101.298043 0.22441791,100.05863 C0.22441791,98.8174238 1.22740299,97.8111857 2.46680597,97.8111857 L8.57426866,97.8111857 C9.81367164,97.8111857 10.8166567,98.8174238 10.8166567,100.05863 C10.8166567,101.298043 9.81367164,102.304281 8.57426866,102.304281" id="Fill-5" fill="#52585A"></path>
                    <path d="M8.57426866,102.304281 L2.46680597,102.304281 C1.22740299,102.304281 0.22441791,101.298043 0.22441791,100.05863 C0.22441791,98.8174238 1.22740299,97.8111857 2.46680597,97.8111857 L8.57426866,97.8111857 C9.81367164,97.8111857 10.8166567,98.8174238 10.8166567,100.05863 C10.8166567,101.298043 9.81367164,102.304281 8.57426866,102.304281" id="Stroke-7"></path>
                    <path d="M116.611522,102.304281 L24.1488358,102.304281 C22.9094328,102.304281 21.9064478,101.298043 21.9064478,100.05863 C21.9064478,98.8174238 22.9094328,97.8111857 24.1488358,97.8111857 L116.611522,97.8111857 C117.850925,97.8111857 118.85391,98.8174238 118.85391,100.05863 C118.85391,101.298043 117.850925,102.304281 116.611522,102.304281" id="Fill-9" fill="#52585A"></path>
                    <path d="M116.611522,102.304281 L24.1488358,102.304281 C22.9094328,102.304281 21.9064478,101.298043 21.9064478,100.05863 C21.9064478,98.8174238 22.9094328,97.8111857 24.1488358,97.8111857 L116.611522,97.8111857 C117.850925,97.8111857 118.85391,98.8174238 118.85391,100.05863 C118.85391,101.298043 117.850925,102.304281 116.611522,102.304281" id="Stroke-11"></path>
                    <path d="M24.1506269,94.7470921 C23.5112239,94.7470921 22.8825672,94.4726635 22.4437612,93.961473 C21.7631642,93.1615048 21.7255522,91.9956317 22.354209,91.1544095 L44.6330149,61.3439333 C45.0449552,60.7950762 45.6843582,60.4650444 46.3703284,60.4453143 C47.0688358,60.4202032 47.7136119,60.7251238 48.1524179,61.2542508 L54.3655522,68.7194254 L78.6198806,40.3779492 C79.3595821,39.5169968 80.6258507,39.3394254 81.5697313,39.9725841 L90.3637612,45.859346 L104.935701,25.1534413 C105.650328,24.1382349 107.050925,23.8978857 108.062866,24.6099651 C109.076597,25.3256317 109.318388,26.726473 108.603761,27.7416794 L92.7709254,50.2376476 C92.0688358,51.2313302 90.7040597,51.4878222 89.6903284,50.8116159 L80.7315224,44.8154413 L56.0437612,73.662727 C55.6157015,74.1631556 54.956597,74.4142667 54.3261493,74.4465524 C53.6652537,74.4429651 53.0401791,74.145219 52.6192836,73.6376159 L46.5243582,66.3141397 L31.9273433,85.8434095 L45.8795821,78.4589492 C46.7768955,77.9800444 47.8873433,78.1719651 48.5768955,78.9217111 L54.5213731,85.3698857 L76.3022687,66.5831873 C77.115403,65.8836635 78.3064478,65.8567587 79.1500299,66.5168222 L88.1715224,73.5981556 L106.64794,55.4571714 C107.532716,54.5890444 108.953015,54.6033937 109.819881,55.4876635 C110.684955,56.3719333 110.672418,57.7960921 109.787642,58.664219 L89.9052537,78.1845206 C89.1028657,78.973727 87.8383881,79.0436794 86.9518209,78.3495365 L77.8336119,71.1928698 L55.8055522,90.191219 C54.8885373,90.982219 53.5130149,90.9032984 52.6927164,90.011854 L46.4509254,83.2372349 L25.1983881,94.4870127 C24.8652537,94.6627905 24.5052537,94.7470921 24.1506269,94.7470921" id="Fill-13" fill="#52585A"></path>
                    <path d="M24.1506269,94.7470921 C23.5112239,94.7470921 22.8825672,94.4726635 22.4437612,93.961473 C21.7631642,93.1615048 21.7255522,91.9956317 22.354209,91.1544095 L44.6330149,61.3439333 C45.0449552,60.7950762 45.6843582,60.4650444 46.3703284,60.4453143 C47.0688358,60.4202032 47.7136119,60.7251238 48.1524179,61.2542508 L54.3655522,68.7194254 L78.6198806,40.3779492 C79.3595821,39.5169968 80.6258507,39.3394254 81.5697313,39.9725841 L90.3637612,45.859346 L104.935701,25.1534413 C105.650328,24.1382349 107.050925,23.8978857 108.062866,24.6099651 C109.076597,25.3256317 109.318388,26.726473 108.603761,27.7416794 L92.7709254,50.2376476 C92.0688358,51.2313302 90.7040597,51.4878222 89.6903284,50.8116159 L80.7315224,44.8154413 L56.0437612,73.662727 C55.6157015,74.1631556 54.956597,74.4142667 54.3261493,74.4465524 C53.6652537,74.4429651 53.0401791,74.145219 52.6192836,73.6376159 L46.5243582,66.3141397 L31.9273433,85.8434095 L45.8795821,78.4589492 C46.7768955,77.9800444 47.8873433,78.1719651 48.5768955,78.9217111 L54.5213731,85.3698857 L76.3022687,66.5831873 C77.115403,65.8836635 78.3064478,65.8567587 79.1500299,66.5168222 L88.1715224,73.5981556 L106.64794,55.4571714 C107.532716,54.5890444 108.953015,54.6033937 109.819881,55.4876635 C110.684955,56.3719333 110.672418,57.7960921 109.787642,58.664219 L89.9052537,78.1845206 C89.1028657,78.973727 87.8383881,79.0436794 86.9518209,78.3495365 L77.8336119,71.1928698 L55.8055522,90.191219 C54.8885373,90.982219 53.5130149,90.9032984 52.6927164,90.011854 L46.4509254,83.2372349 L25.1983881,94.4870127 C24.8652537,94.6627905 24.5052537,94.7470921 24.1506269,94.7470921" id="Stroke-15"></path>
                    <path d="M56.8966567,19.1972651 L28.5981493,19.1972651 C27.3587463,19.1972651 26.3539701,18.1928206 26.3539701,16.9516143 C26.3539701,15.7104079 27.3587463,14.7041698 28.5981493,14.7041698 L56.8966567,14.7041698 C58.1360597,14.7041698 59.1390448,15.7104079 59.1390448,16.9516143 C59.1390448,18.1928206 58.1360597,19.1972651 56.8966567,19.1972651" id="Fill-17" fill="#52585A"></path>
                    <path d="M56.8966567,19.1972651 L28.5981493,19.1972651 C27.3587463,19.1972651 26.3539701,18.1928206 26.3539701,16.9516143 C26.3539701,15.7104079 27.3587463,14.7041698 28.5981493,14.7041698 L56.8966567,14.7041698 C58.1360597,14.7041698 59.1390448,15.7104079 59.1390448,16.9516143 C59.1390448,18.1928206 58.1360597,19.1972651 56.8966567,19.1972651" id="Stroke-19"></path>
                    <path d="M56.8966567,27.3029524 L28.5981493,27.3029524 C27.3587463,27.3029524 26.3539701,26.2985079 26.3539701,25.0573016 C26.3539701,23.8160952 27.3587463,22.8098571 28.5981493,22.8098571 L56.8966567,22.8098571 C58.1360597,22.8098571 59.1390448,23.8160952 59.1390448,25.0573016 C59.1390448,26.2985079 58.1360597,27.3029524 56.8966567,27.3029524" id="Fill-21" fill="#52585A"></path>
                    <path d="M56.8966567,27.3029524 L28.5981493,27.3029524 C27.3587463,27.3029524 26.3539701,26.2985079 26.3539701,25.0573016 C26.3539701,23.8160952 27.3587463,22.8098571 28.5981493,22.8098571 L56.8966567,22.8098571 C58.1360597,22.8098571 59.1390448,23.8160952 59.1390448,25.0573016 C59.1390448,26.2985079 58.1360597,27.3029524 56.8966567,27.3029524" id="Stroke-23"></path>
                    <path d="M44.9339104,35.4084603 L28.597791,35.4084603 C27.3583881,35.4084603 26.3536119,34.4040159 26.3536119,33.1628095 C26.3536119,31.9216032 27.3583881,30.9153651 28.597791,30.9153651 L44.9339104,30.9153651 C46.1733134,30.9153651 47.1762985,31.9216032 47.1762985,33.1628095 C47.1762985,34.4040159 46.1733134,35.4084603 44.9339104,35.4084603" id="Fill-25" fill="#52585A"></path>
                    <path d="M44.9339104,35.4084603 L28.597791,35.4084603 C27.3583881,35.4084603 26.3536119,34.4040159 26.3536119,33.1628095 C26.3536119,31.9216032 27.3583881,30.9153651 28.597791,30.9153651 L44.9339104,30.9153651 C46.1733134,30.9153651 47.1762985,31.9216032 47.1762985,33.1628095 C47.1762985,34.4040159 46.1733134,35.4084603 44.9339104,35.4084603" id="Stroke-27"></path>
                    <path d="M77.7664478,25.1195413 C76.5270448,25.1195413 75.5240597,24.1150968 75.5240597,22.8738905 L75.5240597,6.39920794 C75.5240597,5.15800159 76.5270448,4.15355714 77.7664478,4.15355714 C79.0058507,4.15355714 80.0088358,5.15800159 80.0088358,6.39920794 L80.0088358,22.8738905 C80.0088358,24.1150968 79.0058507,25.1195413 77.7664478,25.1195413" id="Fill-29" fill="#52585A"></path>
                    <path d="M77.7664478,25.1195413 C76.5270448,25.1195413 75.5240597,24.1150968 75.5240597,22.8738905 L75.5240597,6.39920794 C75.5240597,5.15800159 76.5270448,4.15355714 77.7664478,4.15355714 C79.0058507,4.15355714 80.0088358,5.15800159 80.0088358,6.39920794 L80.0088358,22.8738905 C80.0088358,24.1150968 79.0058507,25.1195413 77.7664478,25.1195413" id="Stroke-31"></path>
                    <path d="M85.9914627,16.8816619 L69.5407164,16.8816619 C68.3013134,16.8816619 67.2983284,15.8772175 67.2983284,14.6360111 C67.2983284,13.3948048 68.3013134,12.3885667 69.5407164,12.3885667 L85.9914627,12.3885667 C87.2308657,12.3885667 88.2338507,13.3948048 88.2338507,14.6360111 C88.2338507,15.8772175 87.2308657,16.8816619 85.9914627,16.8816619" id="Fill-33" fill="#52585A"></path>
                    <path d="M85.9914627,16.8816619 L69.5407164,16.8816619 C68.3013134,16.8816619 67.2983284,15.8772175 67.2983284,14.6360111 C67.2983284,13.3948048 68.3013134,12.3885667 69.5407164,12.3885667 L85.9914627,12.3885667 C87.2308657,12.3885667 88.2338507,13.3948048 88.2338507,14.6360111 C88.2338507,15.8772175 87.2308657,16.8816619 85.9914627,16.8816619" id="Stroke-35"></path>
                    <path d="M111.212955,63.9807794 C109.989672,63.9807794 108.990269,62.9978587 108.970567,61.7692079 L108.88997,56.2860175 L103.531164,56.2860175 C102.291761,56.2860175 101.288776,55.2797794 101.288776,54.0403667 C101.288776,52.7991603 102.291761,51.7947159 103.531164,51.7947159 L111.100119,51.7947159 C112.325194,51.7947159 113.324597,52.7794302 113.342507,54.0062873 L113.455343,61.7010492 C113.475045,62.9422556 112.484597,63.9610492 111.248776,63.9807794 L111.212955,63.9807794 Z" id="Fill-37" fill="#52585A"></path>
                    <path d="M111.212955,63.9807794 C109.989672,63.9807794 108.990269,62.9978587 108.970567,61.7692079 L108.88997,56.2860175 L103.531164,56.2860175 C102.291761,56.2860175 101.288776,55.2797794 101.288776,54.0403667 C101.288776,52.7991603 102.291761,51.7947159 103.531164,51.7947159 L111.100119,51.7947159 C112.325194,51.7947159 113.324597,52.7794302 113.342507,54.0062873 L113.455343,61.7010492 C113.475045,62.9422556 112.484597,63.9610492 111.248776,63.9807794 L111.212955,63.9807794 Z" id="Stroke-39"></path>
                    <path d="M110.068299,33.1506127 C108.959642,33.1506127 107.99606,32.3291206 107.847403,31.1991206 L107.134567,25.7625651 L101.811582,26.3831683 C100.59009,26.5266603 99.4688955,25.6441841 99.3238209,24.411946 C99.1805373,23.1779143 100.063522,22.0640571 101.292179,21.9187714 L108.810985,21.0452635 C110.01994,20.8981841 111.13397,21.7645175 111.293373,22.9824063 L112.294567,30.6125968 C112.455761,31.8430413 111.592478,32.969454 110.365612,33.1308825 C110.263522,33.1452317 110.165015,33.1506127 110.068299,33.1506127" id="Fill-41" fill="#52585A"></path>
                    <path d="M110.068299,33.1506127 C108.959642,33.1506127 107.99606,32.3291206 107.847403,31.1991206 L107.134567,25.7625651 L101.811582,26.3831683 C100.59009,26.5266603 99.4688955,25.6441841 99.3238209,24.411946 C99.1805373,23.1779143 100.063522,22.0640571 101.292179,21.9187714 L108.810985,21.0452635 C110.01994,20.8981841 111.13397,21.7645175 111.293373,22.9824063 L112.294567,30.6125968 C112.455761,31.8430413 111.592478,32.969454 110.365612,33.1308825 C110.263522,33.1452317 110.165015,33.1506127 110.068299,33.1506127" id="Stroke-43"></path>
                </g>
            </g>
        </g>
    </g>
</svg>