<?xml version="1.0" encoding="UTF-8"?>
<svg width="12px" height="12px" viewBox="0 0 12 12" version="1.1" xmlns="http://www.w3.org/2000/svg" xmlns:xlink="http://www.w3.org/1999/xlink">
    <!-- Generator: Sketch 48.2 (47327) - http://www.bohemiancoding.com/sketch -->
    <title>Fill 1</title>
    <desc>Created with Sketch.</desc>
    <defs></defs>
    <g id="success" stroke="none" stroke-width="1" fill="none" fill-rule="evenodd" transform="translate(-1271.000000, -272.000000)" opacity="0.80477808">
        <g id="report-sent" transform="translate(120.000000, 247.000000)" fill="#464646">
            <g id="icon" transform="translate(1151.000000, 25.000000)">
                <path d="M11.5606138,9.43957375 C12.1463683,10.0253283 12.1463683,10.9752107 11.5606138,11.5605903 C11.2677365,11.8534676 10.8837335,12.0000937 10.5001055,12.0000937 C10.1161025,12.0000937 9.73247447,11.8534676 9.43959718,11.5605903 L6.00007031,8.12143845 L2.56054344,11.5605903 C2.26766615,11.8534676 1.88366315,12.0000937 1.50003516,12.0000937 C1.11603216,12.0000937 0.73240416,11.8534676 0.439526872,11.5605903 C-0.146602707,10.9752107 -0.146602707,10.0253283 0.439526872,9.43957375 L3.87867874,6.00004687 L0.439526872,2.56052 C-0.146602707,1.97514043 -0.146602707,1.02525801 0.439526872,0.439503432 C1.02490645,-0.146251144 1.97478887,-0.146251144 2.56054344,0.439503432 L6.00007031,3.8786553 L9.43959718,0.439503432 C10.0249768,-0.146251144 10.9748592,-0.146251144 11.5606138,0.439503432 C12.1463683,1.02525801 12.1463683,1.97514043 11.5606138,2.56052 L8.12146189,6.00004687 L11.5606138,9.43957375 Z" id="Fill-1" style="mix-blend-mode: multiply;"></path>
            </g>
        </g>
    </g>
</svg>