<?xml version="1.0" encoding="UTF-8"?>
<svg width="13px" height="15px" viewBox="0 0 13 15" version="1.1" xmlns="http://www.w3.org/2000/svg" xmlns:xlink="http://www.w3.org/1999/xlink">
    <!-- Generator: Sketch 48.2 (47327) - http://www.bohemiancoding.com/sketch -->
    <title>Fill 1</title>
    <desc>Created with Sketch.</desc>
    <defs></defs>
    <g id="results" stroke="none" stroke-width="1" fill="none" fill-rule="evenodd" transform="translate(-1189.000000, -262.000000)">
        <g id="your-results" transform="translate(120.000000, 247.000000)" fill="#007CBC">
            <g id="links" transform="translate(754.000000, 15.000000)">
                <g id="download-pdf" transform="translate(315.000000, 0.000000)">
                    <g id="icon">
                        <path d="M9.19189375,7.05810625 C8.94783125,6.81404375 8.55205,6.81404375 8.30814375,7.05810625 L6.87501875,8.491075 L6.87501875,0.6251375 L6.87501875,0.62498125 C6.87501875,0.279825 6.595175,-1.875e-05 6.25001875,-1.875e-05 C5.9048625,-1.875e-05 5.62501875,0.279825 5.62501875,0.62498125 L5.62501875,8.491075 L4.19189375,7.05810625 C3.94783125,6.81404375 3.55205,6.81404375 3.30814375,7.05810625 C3.063925,7.30216875 3.063925,7.69795 3.30814375,7.94185625 L5.80814375,10.4418563 C5.92533125,10.5590438 6.0842375,10.6249813 6.25001875,10.6249813 C6.41564375,10.6249813 6.57470625,10.5590438 6.69189375,10.4418563 L9.19189375,7.94185625 C9.43595625,7.69795 9.43595625,7.30216875 9.19189375,7.05810625 M12.5000187,4.37498125 L12.5000187,13.1249813 C12.5000187,14.1606063 11.6606437,14.9999813 10.6250187,14.9999813 L1.87501875,14.9999813 C0.83939375,14.9999813 1.875e-05,14.1606063 1.875e-05,13.1249813 L1.875e-05,4.37498125 C1.875e-05,3.33935625 0.83939375,2.49998125 1.87501875,2.49998125 L4.37501875,2.49998125 L4.37501875,3.74998125 L1.87501875,3.74998125 C1.5298625,3.74998125 1.25001875,4.029825 1.25001875,4.37498125 L1.25001875,13.1249813 C1.25001875,13.4701375 1.5298625,13.7499813 1.87501875,13.7499813 L10.6250187,13.7499813 C10.970175,13.7499813 11.2500187,13.4701375 11.2500187,13.1249813 L11.2500187,4.37498125 C11.2500187,4.029825 10.970175,3.74998125 10.6250187,3.74998125 L8.12501875,3.74998125 L8.12501875,2.49998125 L10.6250187,2.49998125 C11.6606437,2.49998125 12.5000187,3.33935625 12.5000187,4.37498125" id="Fill-1"></path>
                    </g>
                </g>
            </g>
        </g>
    </g>
</svg>