<?xml version="1.0" encoding="UTF-8"?>
<svg width="15px" height="21px" viewBox="0 0 15 21" version="1.1" xmlns="http://www.w3.org/2000/svg" xmlns:xlink="http://www.w3.org/1999/xlink">
    <!-- Generator: Sketch 48.2 (47327) - http://www.bohemiancoding.com/sketch -->
    <title>icon</title>
    <desc>Created with Sketch.</desc>
    <defs></defs>
    <g id="project-profitability" stroke="none" stroke-width="1" fill="none" fill-rule="evenodd" transform="translate(-121.000000, -295.000000)">
        <g id="profitable-projects" transform="translate(118.000000, 247.000000)" fill="#464646" stroke="#464646" stroke-width="0.25">
            <g id="icon" transform="translate(4.000000, 49.000000)">
                <path d="M3.56247222,18.4182778 C3.37858333,18.4182778 3.21025,18.2960556 3.16025,18.1096667 C3.10052778,17.8874444 3.23247222,17.6591111 3.45469444,17.5993889 L9.56997222,15.9582778 C9.79191667,15.8982778 10.0208056,16.0299444 10.08025,16.2521667 C10.1399722,16.4743889 10.0083056,16.703 9.78580556,16.7624444 L3.67080556,18.4038333 C3.63469444,18.4135556 3.59830556,18.4182778 3.56247222,18.4182778" id="Fill-1"></path>
                <path d="M3.56247222,16.5739167 C3.37858333,16.5739167 3.21025,16.4514167 3.16025,16.2653056 C3.10052778,16.0430833 3.23247222,15.8144722 3.45469444,15.75475 L9.56997222,14.1136389 C9.79191667,14.0561389 10.0208056,14.1855833 10.08025,14.4080833 C10.1399722,14.6303056 10.0083056,14.8589167 9.78580556,14.9186389 L3.67080556,16.55975 C3.63469444,16.5691944 3.59830556,16.5739167 3.56247222,16.5739167" id="Fill-3"></path>
                <path d="M5.50625,19.7952222 C5.32236111,19.7952222 5.15402778,19.6727222 5.10402778,19.4866111 C5.04430556,19.2643889 5.17625,19.0357778 5.39847222,18.9763333 L7.62597222,18.3782778 C7.84763889,18.3188333 8.07680556,18.4502222 8.13652778,18.6727222 C8.19625,18.8949444 8.06430556,19.1235556 7.84208333,19.183 L5.61458333,19.7807778 C5.57847222,19.7905 5.54208333,19.7952222 5.50625,19.7952222" id="Fill-5"></path>
                <path d="M9.25611111,14.8741667 C9.02583333,14.8741667 8.83944444,14.6875 8.83944444,14.4575 C8.83944444,13.1580556 9.39083333,11.9127778 10.3522222,11.0405556 L10.4102778,10.9886111 C10.4477778,10.9552778 10.4847222,10.9219444 10.5219444,10.8911111 C11.7188889,9.79666667 12.4072222,8.23861111 12.4072222,6.62 C12.4072222,3.42916667 9.81111111,0.833333333 6.62,0.833333333 C3.42916667,0.833333333 0.833333333,3.42916667 0.833333333,6.62 C0.833333333,8.23944444 1.52111111,9.79722222 2.72027778,10.8936111 C2.77527778,10.9427778 2.86916667,11.0313889 2.86916667,11.0313889 C4.03583333,12.0388889 5.60583333,12.5411111 7.16555556,12.3952778 L8.71194444,6.24194444 L8.34416667,6.01194444 L7.6925,6.40583333 C7.55944444,6.48638889 7.3925,6.48583333 7.26,6.405 L6.61361111,6.01055556 L5.96305556,6.40555556 C5.82888889,6.48666667 5.66055556,6.48583333 5.5275,6.40361111 L4.89527778,6.0125 L4.51861111,6.24388889 L5.80055556,11.2938889 C5.85694444,11.5169444 5.72194444,11.7436111 5.49916667,11.8008333 C5.27583333,11.8572222 5.04916667,11.7219444 4.9925,11.4991667 L3.63555556,6.15194444 C3.59083333,5.97527778 3.66583333,5.78972222 3.82138889,5.69416667 L4.67777778,5.16777778 C4.81194444,5.08527778 4.98111111,5.08555556 5.11527778,5.16888889 L5.74888889,5.56055556 L6.39805556,5.16666667 C6.53166667,5.08583333 6.69861111,5.08611111 6.83138889,5.16722222 L7.47805556,5.56194444 L8.1325,5.16638889 C8.26666667,5.085 8.43555556,5.08611111 8.56888889,5.16944444 L9.41083333,5.69611111 C9.56416667,5.79194444 9.63805556,5.97555556 9.59388889,6.15083333 L7.91,12.8522222 C7.86861111,13.0166667 7.7275,13.1641667 7.55972222,13.1880556 C7.25138889,13.2316667 6.93666667,13.2538889 6.62416667,13.2538889 C5.03972222,13.2538889 3.50777778,12.6838889 2.31027778,11.6491667 C2.29527778,11.6358333 2.21444444,11.5588889 2.17472222,11.5233333 C0.786666667,10.2547222 0,8.47277778 0,6.62 C0,2.97 2.96972222,0 6.62,0 C10.2705556,0 13.2405556,2.97 13.2405556,6.62 C13.2405556,8.47222222 12.4536111,10.2538889 11.0813889,11.5088889 C11.0766667,11.5130556 11.06,11.5275 11.055,11.5319444 C11.025,11.5566667 10.9952778,11.5833333 10.9652778,11.61 L10.9111111,11.6586111 C10.1244444,12.3722222 9.67277778,13.3927778 9.67277778,14.4575 C9.67277778,14.6875 9.48638889,14.8741667 9.25611111,14.8741667" id="Fill-7"></path>
            </g>
        </g>
    </g>
</svg>