<?xml version="1.0" encoding="UTF-8"?>
<svg width="15px" height="15px" viewBox="0 0 15 15" version="1.1" xmlns="http://www.w3.org/2000/svg" xmlns:xlink="http://www.w3.org/1999/xlink">
    <!-- Generator: Sketch 48.2 (47327) - http://www.bohemiancoding.com/sketch -->
    <title>Page 1</title>
    <desc>Created with Sketch.</desc>
    <defs></defs>
    <g id="results" stroke="none" stroke-width="1" fill="none" fill-rule="evenodd" transform="translate(-1035.000000, -263.000000)">
        <g id="your-results" transform="translate(120.000000, 247.000000)" fill="#007CBC">
            <g id="links" transform="translate(754.000000, 15.000000)">
                <g id="invite-others" transform="translate(161.000000, 1.000000)">
                    <g id="icon">
                        <path d="M13.75,12.5 C13.75,12.8446875 13.4696875,13.125 13.125,13.125 L1.875,13.125 C1.5303125,13.125 1.25,12.8446875 1.25,12.5 L1.25,11.2646875 C1.25,11.1190625 1.61015625,10.64875 2.68,10.2003125 C3.930625,9.67578125 5.6875,9.375 7.5,9.375 C9.3115625,9.375 11.0679688,9.6765625 12.3190625,10.2021875 C13.3895312,10.6521875 13.75,11.1232812 13.75,11.2695312 L13.75,12.5 Z M5,5.625 L5,3.75 C5,2.369375 6.119375,1.25 7.5,1.25 C8.88078125,1.25 10,2.369375 10,3.75 L10,5.625 C10,7.005625 8.88078125,8.125 7.5,8.125 C6.119375,8.125 5,7.005625 5,5.625 Z M10.1048437,8.32125 C10.810625,7.63953125 11.25,6.68359375 11.25,5.625 L11.25,3.75 C11.25,1.67890625 9.57109375,0 7.5,0 C5.42890625,0 3.75,1.67890625 3.75,3.75 L3.75,5.625 C3.75,6.68328125 4.189375,7.63890625 4.8946875,8.32078125 C2.03703125,8.7659375 0,9.92 0,11.2646875 L0,12.5 C0,13.5359375 0.8390625,14.375 1.875,14.375 L13.125,14.375 C14.1609375,14.375 15,13.5359375 15,12.5 L15,11.2695312 C15,9.925 12.9628125,8.76734375 10.1048437,8.32125 Z" id="Page-1"></path>
                    </g>
                </g>
            </g>
        </g>
    </g>
</svg>