<?xml version="1.0" encoding="UTF-8"?>
<svg width="109px" height="108px" viewBox="0 0 109 108" version="1.1" xmlns="http://www.w3.org/2000/svg" xmlns:xlink="http://www.w3.org/1999/xlink">
    <!-- Generator: Sketch 48.2 (47327) - http://www.bohemiancoding.com/sketch -->
    <title>pie-chart-gray</title>
    <desc>Created with Sketch.</desc>
    <defs></defs>
    <g id="landing" stroke="none" stroke-width="1" fill="none" fill-rule="evenodd" transform="translate(-665.000000, -562.000000)">
        <g id="utilization" transform="translate(545.000000, 562.000000)" fill="#52585A">
            <g id="pie-chart-gray" transform="translate(120.000000, 0.000000)">
                <g>
                    <path d="M50.8893151,108 C50.8410959,108 50.7928767,107.9985 50.7431507,107.9955 C22.2893151,106.1625 0,82.4685 0,54.0555 C0,24.2505 24.359726,0 54.3008219,0 C66.1672603,0 77.44,3.7425 86.8984932,10.821 C87.8975342,11.568 88.0979452,12.978 87.3475342,13.971 C86.5956164,14.9655 85.1791781,15.162 84.1831507,14.418 C75.5127397,7.9305 65.1787671,4.5 54.3008219,4.5 C26.8520548,4.5 4.52054795,26.7315 4.52054795,54.0555 C4.52054795,79.3065 23.7208219,100.4895 48.6561644,103.2945 L48.8309589,86.904 C32.7453425,84.2895 20.8578082,70.5135 20.8578082,54.0555 C20.8578082,35.6985 35.86,20.7645 54.3008219,20.7645 C60.4352055,20.7645 66.4339726,22.4325 71.6506849,25.59 C72.7175342,26.235 73.0550685,27.6195 72.4071233,28.6815 C71.7606849,29.7435 70.3713699,30.081 69.3015068,29.4345 C64.7945205,26.706 59.6064384,25.2645 54.3008219,25.2645 C38.3538356,25.2645 25.3783562,38.1795 25.3783562,54.0555 C25.3783562,68.8875 36.5410959,81.201 51.3413699,82.698 C52.5046575,82.815 53.3861644,83.796 53.3726027,84.96 L53.149589,105.774 C53.1435616,106.392 52.8813699,106.98 52.4263014,107.4 C52.0073973,107.787 51.4573973,108 50.8893151,108" id="Fill-1"></path>
                    <path d="M84.7663014,49.66335 C83.7265753,49.66335 82.7908219,48.94485 82.560274,47.89185 C81.5943836,43.48485 79.5556164,39.30285 76.6654795,35.79735 C75.9256164,34.90035 75.9919178,33.59235 76.8191781,32.77335 L91.6526027,18.09585 C92.0941096,17.65935 92.7089041,17.42985 93.3161644,17.44335 C93.9384932,17.46285 94.5246575,17.73585 94.9375342,18.19785 C102.203562,26.35335 106.775342,36.35685 108.160137,47.12685 C108.318356,48.35985 107.442877,49.48635 106.205753,49.64385 C104.96411,49.80285 103.833973,48.92985 103.675753,47.69835 C102.507945,38.61585 98.8658904,30.12885 93.1021918,23.00685 L81.4180822,34.56885 C84.0972603,38.26185 86.0049315,42.49935 86.9768493,46.93335 C87.2435616,48.14685 86.4690411,49.34685 85.25,49.61085 C85.0872603,49.64685 84.9260274,49.66335 84.7663014,49.66335" id="Fill-3"></path>
                    <path d="M61.1827534,107.6601 C60.0661781,107.6601 59.0957671,106.8366 58.9450822,105.7041 C58.7808356,104.4726 59.6517945,103.3431 60.8904247,103.1796 C83.6785068,100.1811 101.373438,81.9486 103.797959,59.3811 L87.3190548,59.3811 C85.167274,72.7476 75.0894658,83.5236 61.6845342,86.5326 C60.4654932,86.8011 59.257,86.0436 58.9827534,84.8316 C58.707,83.6196 59.4724795,82.4151 60.6900137,82.1421 C72.8623425,79.4106 81.8627534,69.2706 83.0833014,56.9106 C83.1963151,55.7586 84.1697397,54.8811 85.3330274,54.8811 L106.252616,54.8811 C106.874945,54.8811 107.468644,55.1376 107.896589,55.5876 C108.323027,56.0391 108.544534,56.6451 108.50837,57.2631 C106.989466,83.0691 87.2120685,104.2551 61.4811096,107.6406 C61.3816575,107.6541 61.2806986,107.6601 61.1827534,107.6601" id="Fill-5"></path>
                    <path d="M101.262082,75.23805 C100.683452,75.23805 100.104822,75.01905 99.6633151,74.57955 L85.1207123,60.10155 C84.2376986,59.22255 84.2376986,57.79755 85.1207123,56.92005 C86.003726,56.04105 87.433726,56.04105 88.3167397,56.92005 L102.860849,71.39655 C103.742356,72.27555 103.742356,73.70055 102.860849,74.57955 C102.419342,75.01905 101.840712,75.23805 101.262082,75.23805" id="Fill-7"></path>
                    <path d="M95.529726,85.7856 C94.9510959,85.7856 94.3724658,85.5666 93.9309589,85.1271 L80.269863,71.5266 C79.3868493,70.6476 79.3868493,69.2226 80.269863,68.3451 C81.1513699,67.4661 82.5828767,67.4661 83.4658904,68.3451 L97.1284932,81.9441 C98.01,82.8231 98.01,84.2481 97.1284932,85.1271 C96.6869863,85.5666 96.1083562,85.7856 95.529726,85.7856" id="Fill-9"></path>
                    <path d="M88.6672329,95.2083 C88.0886027,95.2083 87.5099726,94.9893 87.0684658,94.5498 L72.6313425,80.1768 C71.7483288,79.2978 71.7483288,77.8728 72.6313425,76.9938 C73.5143562,76.1148 74.9443562,76.1148 75.8273699,76.9938 L90.266,91.3668 C91.1475068,92.2458 91.1475068,93.6708 90.266,94.5498 C89.8244932,94.9893 89.245863,95.2083 88.6672329,95.2083" id="Fill-11"></path>
                    <path d="M78.5276438,101.36865 C77.9490137,101.36865 77.3703836,101.14965 76.9288767,100.71015 L62.3003836,86.14665 C61.4188767,85.26765 61.4188767,83.84265 62.3003836,82.96515 C63.1833973,82.08615 64.6149041,82.08615 65.4979178,82.96515 L80.126411,97.52715 C81.0079178,98.40615 81.0079178,99.83115 80.126411,100.71015 C79.6849041,101.14965 79.106274,101.36865 78.5276438,101.36865" id="Fill-13"></path>
                </g>
            </g>
        </g>
    </g>
</svg>