<?xml version="1.0" encoding="UTF-8"?>
<svg width="109px" height="110px" viewBox="0 0 109 110" version="1.1" xmlns="http://www.w3.org/2000/svg" xmlns:xlink="http://www.w3.org/1999/xlink">
    <!-- Generator: Sketch 48.2 (47327) - http://www.bohemiancoding.com/sketch -->
    <title>piggy-bank</title>
    <desc>Created with Sketch.</desc>
    <defs></defs>
    <g id="landing" stroke="none" stroke-width="1" fill="none" fill-rule="evenodd" transform="translate(-1091.000000, -556.000000)">
        <g id="project-profitability" transform="translate(971.000000, 556.000000)" fill="#52585A">
            <g id="piggy-bank-gray" transform="translate(120.000000, 0.000000)">
                <g id="Page-1">
                    <path d="M49.9550135,109.370067 L35.2254189,109.370067 C33.9931216,109.370067 32.9956892,108.385933 32.9956892,107.170067 L32.9956892,103.127933 C32.9956892,101.912067 33.9931216,100.927933 35.2254189,100.927933 C36.4562297,100.927933 37.4551486,101.912067 37.4551486,103.127933 L37.4551486,104.970067 L47.7252838,104.970067 L47.7252838,104.474333 C47.7252838,103.258467 48.7227162,102.274333 49.9550135,102.274333 C51.1873108,102.274333 52.1847432,103.258467 52.1847432,104.474333 L52.1847432,107.170067 C52.1847432,108.385933 51.1873108,109.370067 49.9550135,109.370067" id="Fill-1"></path>
                    <path d="M88.2522568,109.370067 L73.5226622,109.370067 C72.2903649,109.370067 71.2929324,108.385933 71.2929324,107.170067 L71.2929324,104.024067 C71.2929324,102.8082 72.2903649,101.824067 73.5226622,101.824067 C74.753473,101.824067 75.7523919,102.8082 75.7523919,104.024067 L75.7523919,104.970067 L86.022527,104.970067 L86.022527,101.8842 C86.022527,100.666867 87.0199595,99.6842 88.2522568,99.6842 C89.4845541,99.6842 90.4819865,100.666867 90.4819865,101.8842 L90.4819865,107.170067 C90.4819865,108.385933 89.4845541,109.370067 88.2522568,109.370067" id="Fill-3"></path>
                    <path d="M19.9058378,36.7842933 C18.6735405,36.7842933 17.6761081,35.80016 17.6761081,34.5842933 L17.6761081,15.54696 C17.6761081,14.3428267 18.6542162,13.3630933 19.8731351,13.34696 C19.9831351,13.33816 20.0901622,13.3322933 20.2001622,13.3322933 C25.6347568,13.3322933 30.8716486,15.5850933 34.5715135,19.51576 C35.4084054,20.40456 35.3578649,21.7964267 34.4555676,22.6250933 C33.5517838,23.4508267 32.1381351,23.3980267 31.3027297,22.5106933 C28.8871892,19.9440267 25.6228649,18.2998933 22.1355676,17.8554933 L22.1355676,34.5842933 C22.1355676,35.80016 21.1381351,36.7842933 19.9058378,36.7842933" id="Fill-5"></path>
                    <path d="M71.1649459,97.9561733 L45.2421081,97.9561733 C41.456027,97.9561733 37.7175135,97.4017733 34.1335946,96.3061733 C24.6096757,93.3977733 16.6004865,86.7889733 11.9671081,78.06964 L7.00818919,78.06964 C6.33778378,78.06964 5.70156757,77.7719067 5.27940541,77.2615067 C4.85724324,76.7467067 4.68778378,76.0735067 4.82454054,75.4267067 L5.58562162,71.79524 L2.22913514,71.79524 C0.996837838,71.79524 -0.000594594595,70.8111067 -0.000594594595,69.59524 L-0.000594594595,49.2481733 C-0.000594594595,48.0337733 0.996837838,47.0481733 2.22913514,47.0481733 L9.9112973,47.0481733 C12.641973,39.6415067 17.7584595,33.21164 24.4535946,28.8175067 C25.4807568,28.1443067 26.8617027,28.4215067 27.544,29.43204 C28.2262973,30.44404 27.9498108,31.80804 26.9226486,32.48124 C20.6154865,36.6231067 15.8958919,42.8109733 13.6394054,49.9081733 C13.3465676,50.82484 12.4844054,51.4481733 11.5107568,51.4481733 L4.45886486,51.4481733 L4.45886486,67.39524 L8.32372973,67.39524 C8.99413514,67.39524 9.62886486,67.6929733 10.0525135,68.2077733 C10.4731892,68.7181733 10.6411622,69.39284 10.5044054,70.0425733 L9.7462973,73.66964 L13.3435946,73.66964 C14.2027838,73.66964 14.9846757,74.1565733 15.3548108,74.92364 C19.3371081,83.1545733 26.664,89.4187067 35.4550811,92.10564 C38.6094054,93.06924 41.901973,93.5561733 45.2421081,93.5561733 L71.1649459,93.5561733 C72.0375135,93.5561733 72.9294054,93.52244 73.8153514,93.4535067 C76.1892703,93.2687067 78.5453514,92.8287067 80.8152162,92.1481733 C83.1237297,91.45444 85.3653514,90.5069733 87.4746757,89.3263067 C97.8444054,83.5271067 104.286838,72.6253733 104.286838,60.8773733 L104.286838,59.7143067 C104.286838,51.8383067 101.409,44.22924 96.181027,38.2921733 C95.3723784,37.3755067 95.4734595,35.9865733 96.4025135,35.1887067 C97.3330541,34.3923067 98.7407568,34.49204 99.5479189,35.4087067 C105.479,42.1451067 108.746297,50.77644 108.746297,59.7143067 L108.746297,60.8773733 C108.746297,74.2079067 101.437243,86.57484 89.6731892,93.1557733 C87.2784595,94.49484 84.7335946,95.5713733 82.1114324,96.3575067 C79.5338649,97.1319067 76.8611622,97.6291067 74.1676486,97.8403067 C73.1657568,97.91804 72.1549459,97.9561733 71.1649459,97.9561733" id="Fill-7"></path>
                    <path d="M28.7434459,59.0063467 C27.5111486,59.0063467 26.5137162,58.0222133 26.5137162,56.8063467 C26.5137162,55.1343467 25.1357432,53.7747467 23.4411486,53.7747467 C21.7465541,53.7747467 20.3685811,55.1343467 20.3685811,56.8063467 C20.3685811,58.0222133 19.3696622,59.0063467 18.1388514,59.0063467 C16.9065541,59.0063467 15.9091216,58.0222133 15.9091216,56.8063467 C15.9091216,52.70848 19.2879054,49.3747467 23.4411486,49.3747467 C27.5943919,49.3747467 30.9731757,52.70848 30.9731757,56.8063467 C30.9731757,58.0222133 29.9757432,59.0063467 28.7434459,59.0063467" id="Fill-10"></path>
                    <path d="M47.5699459,44.4728533 C47.1403514,44.4728533 46.7062973,44.35112 46.3227838,44.09592 C45.3045405,43.4153867 45.0354865,42.0469867 45.7267027,41.0408533 C47.4183243,38.56952 48.3131892,35.6772533 48.3131892,32.6808533 C48.3131892,25.08352 42.5426486,18.7929867 35.0968378,17.8528533 L35.0968378,42.2728533 C35.0968378,43.48872 34.0994054,44.4728533 32.8671081,44.4728533 C31.6362973,44.4728533 30.6373784,43.48872 30.6373784,42.2728533 L30.6373784,15.5457867 C30.6373784,14.3445867 31.6184595,13.3648533 32.8344054,13.3457867 C32.9458919,13.3369867 33.0514324,13.33112 33.1644054,13.33112 C43.9756216,13.33112 52.7726486,22.01232 52.7726486,32.6808533 C52.7726486,36.5601867 51.6146757,40.30312 49.4191351,43.5048533 C48.9880541,44.1340533 48.2849459,44.4728533 47.5699459,44.4728533" id="Fill-12"></path>
                    <path d="M77.6015811,4.40029333 C68.7049595,4.40029333 61.4672568,11.5414933 61.4672568,20.3194933 C61.4672568,29.09896 68.7049595,36.24016 77.6015811,36.24016 C86.4982027,36.24016 93.7388784,29.09896 93.7388784,20.3194933 C93.7388784,11.5414933 86.4982027,4.40029333 77.6015811,4.40029333 M77.6015811,40.64016 C66.2448243,40.64016 57.0077973,31.5248267 57.0077973,20.3194933 C57.0077973,9.11562667 66.2448243,0.000293333333 77.6015811,0.000293333333 C88.9598243,0.000293333333 98.1983378,9.11562667 98.1983378,20.3194933 C98.1983378,31.5248267 88.9598243,40.64016 77.6015811,40.64016" id="Fill-14"></path>
                    <path d="M77.5725946,29.8019333 C76.3402973,29.8019333 75.3428649,28.8178 75.3428649,27.6019333 L75.3428649,16.3394 L73.3554324,18.3751333 C72.4992162,19.2507333 71.0885405,19.2756667 70.2025946,18.4323333 C69.3151622,17.589 69.2898919,16.1971333 70.1431351,15.3215333 L75.9671892,9.35953333 C76.5974595,8.7142 77.5636757,8.51033333 78.4065135,8.8462 C79.2493514,9.18206667 79.8023243,9.98873333 79.8023243,10.8863333 L79.8023243,27.6019333 C79.8023243,28.8178 78.8048919,29.8019333 77.5725946,29.8019333" id="Fill-16"></path>
                    <path d="M81.4759595,29.7445867 L73.5767703,29.7445867 C72.3429865,29.7445867 71.3470405,28.7604533 71.3470405,27.5445867 C71.3470405,26.3301867 72.3429865,25.3445867 73.5767703,25.3445867 L81.4759595,25.3445867 C82.7082568,25.3445867 83.7056892,26.3301867 83.7056892,27.5445867 C83.7056892,28.7604533 82.7082568,29.7445867 81.4759595,29.7445867" id="Fill-18"></path>
                </g>
            </g>
        </g>
    </g>
</svg>