<?xml version="1.0" encoding="UTF-8"?>
<svg width="25px" height="22px" viewBox="0 0 25 22" version="1.1" xmlns="http://www.w3.org/2000/svg" xmlns:xlink="http://www.w3.org/1999/xlink">
    <!-- Generator: Sketch 48.2 (47327) - http://www.bohemiancoding.com/sketch -->
    <title>results</title>
    <desc>Created with Sketch.</desc>
    <defs></defs>
    <g id="results" stroke="none" stroke-width="1" fill="none" fill-rule="evenodd" transform="translate(-1032.000000, -127.000000)">
        <g id="nav" transform="translate(0.000000, 100.000000)" fill="#1C191A">
            <g id="text" transform="translate(317.000000, 24.000000)">
                <g id="results" transform="translate(715.000000, 3.000000)">
                    <g>
                        <path d="M24.4318182,21.9510261 L0.487012987,21.9510261 C0.218181818,21.9510261 0,21.7370841 0,21.4727652 C0,21.2084464 0.218181818,20.9945043 0.487012987,20.9945043 L24.4318182,20.9945043 C24.7006494,20.9945043 24.9188312,21.2084464 24.9188312,21.4727652 C24.9188312,21.7370841 24.7006494,21.9510261 24.4318182,21.9510261" id="Fill-1"></path>
                        <path d="M11.8506494,1.07755362 L3.49025974,1.07755362 C3.22142857,1.07755362 3.00324675,0.863611594 3.00324675,0.599292754 C3.00324675,0.334973913 3.22142857,0.121031884 3.49025974,0.121031884 L11.8506494,0.121031884 C12.1194805,0.121031884 12.3376623,0.334973913 12.3376623,0.599292754 C12.3376623,0.863611594 12.1194805,1.07755362 11.8506494,1.07755362" id="Fill-3"></path>
                        <path d="M7.95454545,2.9905971 L3.49025974,2.9905971 C3.22142857,2.9905971 3.00324675,2.77665507 3.00324675,2.51233623 C3.00324675,2.24801739 3.22142857,2.03407536 3.49025974,2.03407536 L7.95454545,2.03407536 C8.22337662,2.03407536 8.44155844,2.24801739 8.44155844,2.51233623 C8.44155844,2.77665507 8.22337662,2.9905971 7.95454545,2.9905971" id="Fill-5"></path>
                        <path d="M5.35714286,4.90364058 L3.49025974,4.90364058 C3.22142857,4.90364058 3.00324675,4.68969855 3.00324675,4.42537971 C3.00324675,4.16106087 3.22142857,3.94711884 3.49025974,3.94711884 L5.35714286,3.94711884 C5.62597403,3.94711884 5.84415584,4.16106087 5.84415584,4.42537971 C5.84415584,4.68969855 5.62597403,4.90364058 5.35714286,4.90364058" id="Fill-7"></path>
                        <path d="M0.487012987,18.865542 C0.357467532,18.865542 0.233766234,18.8145275 0.142532468,18.7252522 C0.0519480519,18.6359768 0,18.5148174 0,18.3872812 C0,18.2629333 0.0519480519,18.1385855 0.142532468,18.0493101 C0.165584416,18.0269913 0.188311688,18.0078609 0.217532468,17.9919188 C0.243506494,17.9727884 0.272727273,17.9600348 0.302272727,17.9472812 C0.331493506,17.9345275 0.36038961,17.9249623 0.392857143,17.9185855 C0.454545455,17.9058319 0.519805195,17.9058319 0.581168831,17.9185855 C0.613961039,17.9249623 0.642857143,17.9345275 0.672077922,17.9472812 C0.701298701,17.9600348 0.730519481,17.9727884 0.756493506,17.9919188 C0.782467532,18.0078609 0.808441558,18.0269913 0.831493506,18.0493101 C0.922077922,18.1385855 0.974025974,18.2629333 0.974025974,18.3872812 C0.974025974,18.5148174 0.922077922,18.6391652 0.831493506,18.7252522 C0.808441558,18.747571 0.782467532,18.7698899 0.756493506,18.7858319 C0.730519481,18.8017739 0.701298701,18.8177159 0.672077922,18.8304696 C0.642857143,18.8432232 0.613961039,18.8527884 0.581168831,18.8559768 C0.551948052,18.8623536 0.519805195,18.865542 0.487012987,18.865542" id="Fill-9"></path>
                        <path d="M0,3.46248116 C0,3.19784348 0.217532468,2.98422029 0.487012987,2.98422029 C0.756493506,2.98422029 0.974025974,3.19784348 0.974025974,3.46248116 C0.974025974,3.72711884 0.756493506,3.94074203 0.487012987,3.94074203 C0.217532468,3.94074203 0,3.72711884 0,3.46248116 M0,6.44682899 C0,6.18537971 0.217532468,5.96856812 0.487012987,5.96856812 C0.756493506,5.96856812 0.974025974,6.18537971 0.974025974,6.44682899 C0.974025974,6.71146667 0.756493506,6.92827826 0.487012987,6.92827826 C0.217532468,6.92827826 0,6.71146667 0,6.44682899 M0,9.43436522 C0,9.16972754 0.217532468,8.95610435 0.487012987,8.95610435 C0.756493506,8.95610435 0.974025974,9.16972754 0.974025974,9.43436522 C0.974025974,9.6990029 0.756493506,9.91262609 0.487012987,9.91262609 C0.217532468,9.91262609 0,9.6990029 0,9.43436522 M0,12.418713 C0,12.1540754 0.217532468,11.9404522 0.487012987,11.9404522 C0.756493506,11.9404522 0.974025974,12.1540754 0.974025974,12.418713 C0.974025974,12.6833507 0.756493506,12.8969739 0.487012987,12.8969739 C0.217532468,12.8969739 0,12.6833507 0,12.418713 M0,15.4030609 C0,15.1384232 0.217532468,14.9248 0.487012987,14.9248 C0.756493506,14.9248 0.974025974,15.1384232 0.974025974,15.4030609 C0.974025974,15.6676986 0.756493506,15.8813217 0.487012987,15.8813217 C0.217532468,15.8813217 0,15.6676986 0,15.4030609" id="Fill-11"></path>
                        <path d="M0.487012987,0.956266667 C0.357467532,0.956266667 0.233766234,0.905252174 0.142532468,0.815976812 C0.0519480519,0.726701449 0,0.605542029 0,0.478005797 C0,0.353657971 0.0519480519,0.229310145 0.142532468,0.140034783 C0.256493506,0.0284405797 0.425649351,-0.022573913 0.581168831,0.00931014493 C0.613961039,0.0156869565 0.642857143,0.0252521739 0.672077922,0.0380057971 C0.701298701,0.0475710145 0.730519481,0.0635130435 0.756493506,0.0794550725 C0.782467532,0.0985855072 0.808441558,0.117715942 0.831493506,0.140034783 C0.922077922,0.229310145 0.974025974,0.353657971 0.974025974,0.478005797 C0.974025974,0.605542029 0.922077922,0.726701449 0.831493506,0.815976812 C0.808441558,0.838295652 0.782467532,0.857426087 0.756493506,0.876556522 C0.730519481,0.892498551 0.701298701,0.90844058 0.672077922,0.921194203 C0.642857143,0.93075942 0.613961039,0.940324638 0.581168831,0.946701449 C0.551948052,0.953078261 0.519805195,0.956266667 0.487012987,0.956266667" id="Fill-13"></path>
                        <path d="M5.30162338,17.753171 L8.4961039,17.753171 L8.4961039,9.35650435 L5.30162338,9.35650435 L5.30162338,17.753171 Z M8.95,18.645287 L4.8474026,18.645287 C4.59642857,18.645287 4.39285714,18.4456928 4.39285714,18.199229 L4.39285714,8.91044638 C4.39285714,8.66430145 4.59642857,8.46438841 4.8474026,8.46438841 L8.95,8.46438841 C9.20097403,8.46438841 9.40454545,8.66430145 9.40454545,8.91044638 L9.40454545,18.199229 C9.40454545,18.4456928 9.20097403,18.645287 8.95,18.645287 Z" id="Fill-16"></path>
                        <path d="M12.3642857,17.7209681 L15.4931818,17.7209681 L15.4931818,12.8108232 L12.3642857,12.8108232 L12.3642857,17.7209681 Z M15.9798701,18.6774899 L11.8772727,18.6774899 C11.6077922,18.6774899 11.3902597,18.4635478 11.3902597,18.199229 L11.3902597,12.3325623 C11.3902597,12.0685623 11.6077922,11.8543014 11.8772727,11.8543014 L15.9798701,11.8543014 C16.2487013,11.8543014 16.4668831,12.0685623 16.4668831,12.3325623 L16.4668831,18.199229 C16.4668831,18.4635478 16.2487013,18.6774899 15.9798701,18.6774899 Z" id="Fill-18"></path>
                        <path d="M19.3337662,17.7209681 L22.4626623,17.7209681 L22.4626623,2.65256232 L19.3337662,2.65256232 L19.3337662,17.7209681 Z M22.9496753,18.6774899 L18.8467532,18.6774899 C18.5779221,18.6774899 18.3597403,18.4635478 18.3597403,18.199229 L18.3597403,2.17462029 C18.3597403,1.91030145 18.5779221,1.69635942 18.8467532,1.69635942 L22.9496753,1.69635942 C23.2185065,1.69635942 23.4366883,1.91030145 23.4366883,2.17462029 L23.4366883,18.199229 C23.4366883,18.4635478 23.2185065,18.6774899 22.9496753,18.6774899 Z" id="Fill-19"></path>
                    </g>
                </g>
            </g>
        </g>
    </g>
</svg>