<?xml version="1.0" encoding="UTF-8"?>
<svg width="15px" height="15px" viewBox="0 0 15 15" version="1.1" xmlns="http://www.w3.org/2000/svg" xmlns:xlink="http://www.w3.org/1999/xlink">
    <!-- Generator: Sketch 48.2 (47327) - http://www.bohemiancoding.com/sketch -->
    <title>Page 1</title>
    <desc>Created with Sketch.</desc>
    <defs></defs>
    <g id="results" stroke="none" stroke-width="1" fill="none" fill-rule="evenodd" transform="translate(-874.000000, -264.000000)">
        <g id="your-results" transform="translate(120.000000, 247.000000)" fill="#007CBC">
            <g id="links" transform="translate(754.000000, 15.000000)">
                <g id="share-results" transform="translate(0.000000, 2.000000)">
                    <path d="M12,13.5 C11.171625,13.5 10.5,12.828375 10.5,12 C10.5,11.171625 11.171625,10.5 12,10.5 C12.828375,10.5 13.5,11.171625 13.5,12 C13.5,12.828375 12.828375,13.5 12,13.5 M3,9 C2.171625,9 1.5,8.328375 1.5,7.5 C1.5,6.671625 2.171625,6 3,6 C3.828375,6 4.5,6.671625 4.5,7.5 C4.5,8.328375 3.828375,9 3,9 M12,1.5 C12.828375,1.5 13.5,2.171625 13.5,3 C13.5,3.828375 12.828375,4.5 12,4.5 C11.171625,4.5 10.5,3.828375 10.5,3 C10.5,2.171625 11.171625,1.5 12,1.5 M12,9 C11.09775,9 10.29,9.4006875 9.7396875,10.0314375 L5.9330625,8.128125 C5.9761875,7.925625 6,7.71525 6,7.5 C6,7.28475 5.9761875,7.074375 5.9330625,6.871875 L9.7396875,4.9685625 C10.2898125,5.5995 11.09775,6 12,6 C13.65675,6 15,4.65675 15,3 C15,1.34325 13.65675,0 12,0 C10.34325,0 9,1.34325 9,3 C9,3.21525 9.0238125,3.425625 9.0669375,3.628125 L5.2603125,5.5314375 C4.7101875,4.9005 3.902625,4.5 3,4.5 C1.34325,4.5 0,5.84325 0,7.5 C0,9.15675 1.34325,10.5 3,10.5 C3.902625,10.5 4.71,10.0993125 5.2603125,9.4685625 L9.0669375,11.371875 C9.0238125,11.574375 9,11.78475 9,12 C9,13.65675 10.34325,15 12,15 C13.65675,15 15,13.65675 15,12 C15,10.34325 13.65675,9 12,9" id="Page-1"></path>
                </g>
            </g>
        </g>
    </g>
</svg>