<?xml version="1.0" encoding="UTF-8"?>
<svg width="15px" height="15px" viewBox="0 0 15 15" version="1.1" xmlns="http://www.w3.org/2000/svg" xmlns:xlink="http://www.w3.org/1999/xlink">
    <!-- Generator: Sketch 48.2 (47327) - http://www.bohemiancoding.com/sketch -->
    <title>icon</title>
    <desc>Created with Sketch.</desc>
    <defs></defs>
    <g id="project-profitability" stroke="none" stroke-width="1" fill="none" fill-rule="evenodd" transform="translate(-604.000000, -488.000000)">
        <g id="profitable-projects" transform="translate(118.000000, 247.000000)" fill="#D1D1D1">
            <g id="projects-over-budget" transform="translate(333.000000, 241.000000)">
                <g id="icon" transform="translate(153.000000, 0.000000)">
                    <path d="M10.0604604,6.74040987 C9.91046039,6.95350769 9.58062343,7.21812726 9.16502561,7.54193161 L8.70736256,7.85790987 C8.45611256,8.05323595 8.30431909,8.23698595 8.24757996,8.41780117 C8.20257996,8.56013813 8.18073213,8.59780117 8.17681909,8.88736639 L8.17616691,8.960899 L6.42866691,8.960899 L6.43372126,8.81301856 C6.45507996,8.20502943 6.47007996,7.84763813 6.72198213,7.55220334 C7.11719952,7.08818161 7.988993,6.52682291 8.02584083,6.50301856 C8.15089517,6.40894247 8.25622126,6.30182291 8.33464517,6.18736639 C8.51806909,5.93448595 8.59926474,5.73540987 8.59926474,5.53975769 C8.59926474,5.2682903 8.51872126,5.01720334 8.35942778,4.79367074 C8.20632996,4.57796421 7.91546039,4.46872508 7.49480822,4.46872508 C7.07757996,4.46872508 6.79192778,4.60111639 6.62105822,4.87274682 C6.44529735,5.1520403 6.35643865,5.44535552 6.35643865,5.74502943 L6.35643865,5.8195403 L4.55464517,5.8195403 L4.55790604,5.74176856 C4.60437343,4.63812726 4.99828648,3.84345334 5.72823213,3.37975769 C6.18687343,3.08448595 6.75752561,2.93481204 7.42339517,2.93481204 C8.29502561,2.93481204 9.03084083,3.14660552 9.6101343,3.56432291 C10.1970908,3.98758378 10.4948082,4.62149682 10.4948082,5.44845334 C10.4948082,5.91100769 10.3487213,6.34551856 10.0604604,6.74040987 M7.37757996,12.0652468 L7.33616691,12.0645946 C6.69834083,12.0456816 6.24866691,11.5757903 6.26676474,10.9474207 C6.28453648,10.329812 6.7451343,9.88144247 7.36192778,9.88144247 L7.39893865,9.88209465 C8.05453648,9.90149682 8.49915604,10.3666599 8.48073213,11.0131273 C8.46247126,11.6325294 8.00904735,12.0652468 7.37757996,12.0652468 M7.39975387,0.000681605405 C3.25796039,0.056116388 -0.0544309138,3.45899682 0.000677781853,7.60095334 C0.0561125645,11.7411164 3.45866691,15.054486 7.60029735,14.9993773 C11.7412756,14.9436164 15.0543191,11.5405729 14.9992104,7.39910552 C14.9437756,3.25861639 11.5410582,-0.0545901337 7.39975387,0.000681605405" id="Fill-1"></path>
                </g>
            </g>
        </g>
    </g>
</svg>