<?xml version="1.0" encoding="UTF-8"?>
<svg width="22px" height="16px" viewBox="0 0 22 16" version="1.1" xmlns="http://www.w3.org/2000/svg" xmlns:xlink="http://www.w3.org/1999/xlink">
    <!-- Generator: Sketch 49.2 (51160) - http://www.bohemiancoding.com/sketch -->
    <title>Page 1</title>
    <desc>Created with Sketch.</desc>
    <defs></defs>
    <g id="Page-1" stroke="none" stroke-width="1" fill="none" fill-rule="evenodd" fill-opacity="0.9" stroke-opacity="0.9">
        <g id="hp-mobile" transform="translate(-280.000000, -23.000000)" fill="#2E353E" stroke="#2E353E">
            <g id="masthead">
                <g id="Page-1" transform="translate(281.000000, 24.000000)">
                    <path d="M0.665884615,0.945461538 L19.7285769,0.945461538 C19.9905,0.945461538 20.2005,0.732 20.2005,0.474692308 C20.2005,0.211615385 19.9905,0.000461538462 19.7285769,0.000461538462 L0.665884615,0.000461538462 C0.405115385,0.000461538462 0.193961538,0.212769231 0.193961538,0.474692308 C0.192807692,0.733153846 0.405115385,0.945461538 0.665884615,0.945461538" id="Fill-1"></path>
                    <path d="M19.9201154,12.7036154 L0.472038462,12.7036154 C0.211269231,12.7036154 0.000115384615,12.9182308 0.000115384615,13.1778462 C0.000115384615,13.4374615 0.211269231,13.6497692 0.472038462,13.6497692 L19.9201154,13.6497692 C20.1808846,13.6497692 20.3931923,13.4363077 20.3931923,13.1778462 C20.3920385,12.9170769 20.1808846,12.7036154 19.9201154,12.7036154" id="Fill-6"></path>
                    <path d="M19.9201154,6.35076923 L0.472038462,6.35076923 C0.211269231,6.35076923 0.000115384615,6.56423077 0.000115384615,6.82269231 C0.000115384615,7.08461538 0.211269231,7.29576923 0.472038462,7.29576923 L19.9201154,7.29576923 C20.1808846,7.29576923 20.3931923,7.08346154 20.3931923,6.82269231 C20.3920385,6.56423077 20.1808846,6.35076923 19.9201154,6.35076923" id="Fill-3"></path>
                </g>
            </g>
        </g>
    </g>
</svg>