<?xml version="1.0" encoding="UTF-8"?>
<svg width="52px" height="52px" viewBox="0 0 52 52" version="1.1" xmlns="http://www.w3.org/2000/svg" xmlns:xlink="http://www.w3.org/1999/xlink">
    <!-- Generator: Sketch 49.1 (51147) - http://www.bohemiancoding.com/sketch -->
    <title>play</title>
    <desc>Created with Sketch.</desc>
    <defs>
        <circle id="path-1" cx="20" cy="20" r="20"></circle>
        <filter x="-25.0%" y="-20.0%" width="150.0%" height="150.0%" filterUnits="objectBoundingBox" id="filter-2">
            <feOffset dx="0" dy="2" in="SourceAlpha" result="shadowOffsetOuter1"></feOffset>
            <feGaussianBlur stdDeviation="3" in="shadowOffsetOuter1" result="shadowBlurOuter1"></feGaussianBlur>
            <feColorMatrix values="0 0 0 0 0.180392157   0 0 0 0 0.207843137   0 0 0 0 0.243137255  0 0 0 0.7 0" type="matrix" in="shadowBlurOuter1"></feColorMatrix>
        </filter>
    </defs>
    <g id="Page-1" stroke="none" stroke-width="1" fill="none" fill-rule="evenodd">
        <g id="hp-desktop" transform="translate(-210.000000, -476.000000)">
            <g id="hero" transform="translate(0.000000, 91.000000)">
                <g id="video" transform="translate(122.000000, 344.000000)">
                    <g id="play" transform="translate(94.000000, 45.000000)">
                        <g id="Oval-6">
                            <use fill="black" fill-opacity="1" filter="url(#filter-2)" xlink:href="#path-1"></use>
                            <use fill="#FFFFFF" fill-rule="evenodd" xlink:href="#path-1"></use>
                        </g>
                        <path d="M25.5708451,20.8574929 L18.5144958,25.0913025 C18.0409155,25.3754507 17.4266552,25.2218856 17.1425071,24.7483054 C17.0492578,24.59289 17,24.4150536 17,24.2338096 L17,15.7661904 C17,15.2139056 17.4477153,14.7661904 18,14.7661904 C18.1812439,14.7661904 18.3590804,14.8154482 18.5144958,14.9086975 L25.5708451,19.1425071 C26.0444254,19.4266552 26.1979905,20.0409155 25.9138423,20.5144958 C25.8293925,20.6552454 25.7115947,20.7730432 25.5708451,20.8574929 Z" id="Triangle" fill="#2C7CB5"></path>
                    </g>
                </g>
            </g>
        </g>
    </g>
</svg>