<?xml version="1.0" encoding="UTF-8"?>
<svg width="20px" height="17px" viewBox="0 0 20 17" version="1.1" xmlns="http://www.w3.org/2000/svg" xmlns:xlink="http://www.w3.org/1999/xlink">
    <!-- Generator: Sketch 49.1 (51147) - http://www.bohemiancoding.com/sketch -->
    <title>“</title>
    <desc>Created with Sketch.</desc>
    <defs></defs>
    <g id="Page-1" stroke="none" stroke-width="1" fill="none" fill-rule="evenodd">
        <g id="hp-desktop" transform="translate(-710.000000, -3311.000000)" fill="#515F73">
            <g id="testimonial" transform="translate(303.000000, 3264.000000)">
                <g id="background" transform="translate(407.000000, 0.000000)">
                    <path d="M5,55.6756757 L6,55.6756757 C7.1045695,55.6756757 8,56.5711062 8,57.6756757 L8,60.6756757 C8,62.3325299 6.65685425,63.6756757 5,63.6756757 L2,63.6756757 C0.8954305,63.6756757 1.3527075e-16,62.7802452 0,61.6756757 L0,57.6216216 C0,51.0089759 2.66664,47.4684708 8,47 L8,50 C5.99999,50.5585614 5,52.1621489 5,54.8108108 L5,55.6756757 Z M17,55.6756757 L18,55.6756757 C19.1045695,55.6756757 20,56.5711062 20,57.6756757 L20,60.6756757 C20,62.3325299 18.6568542,63.6756757 17,63.6756757 L14,63.6756757 C12.8954305,63.6756757 12,62.7802452 12,61.6756757 L12,57.6216216 C12,51.0089759 14.66664,47.4684708 20,47 L20,50 C17.99999,50.5585614 17,52.1621489 17,54.8108108 L17,55.6756757 Z" id="“"></path>
                </g>
            </g>
        </g>
    </g>
</svg>