<svg width="15" height="22" viewBox="0 0 15 22" xmlns="http://www.w3.org/2000/svg"><title>calculator</title><g fill="#1C191A" fill-rule="evenodd" opacity=".9"><path d="M1.502.917a.608.608 0 0 0-.602.612V20.19c0 .338.27.613.602.613h11.771a.608.608 0 0 0 .602-.613V1.53a.608.608 0 0 0-.601-.612H1.502zm11.771 20.802H1.502C.673 21.72 0 21.034 0 20.19V1.53C0 .686.673 0 1.502 0h11.771c.828 0 1.502.686 1.502 1.529V20.19c0 .843-.674 1.53-1.502 1.53z"/><path d="M.45 7.43h13.875v-.917H.45zM14.1 14.554H9.24a.454.454 0 0 1-.45-.458c0-.254.201-.459.45-.459h4.86c.25 0 .45.205.45.459a.454.454 0 0 1-.45.458M5.567 14.554H.674a.454.454 0 0 1-.45-.458c0-.254.201-.459.45-.459h4.893c.248 0 .45.205.45.459a.454.454 0 0 1-.45.458M7.388 19.95a.454.454 0 0 1-.45-.458V8.74c0-.253.201-.458.45-.458.248 0 .45.205.45.458v10.752a.454.454 0 0 1-.45.459M10.185 5.503H2.777a.743.743 0 0 1-.734-.748V2.847c0-.412.33-.748.734-.748h9.318c.405 0 .735.336.735.748v1.908a.454.454 0 0 1-.45.458.454.454 0 0 1-.45-.458v-1.74H2.943v1.571h7.242c.248 0 .45.205.45.459a.454.454 0 0 1-.45.458M3.773 12.556a.454.454 0 0 1-.45-.458v-2.98c0-.253.201-.458.45-.458.248 0 .45.205.45.458v2.98a.454.454 0 0 1-.45.458"/><path d="M5.235 11.066H2.31a.454.454 0 0 1-.45-.458c0-.253.202-.458.45-.458h2.925c.248 0 .45.205.45.458a.454.454 0 0 1-.45.458M2.738 19.204a.444.444 0 0 1-.318-.134.465.465 0 0 1 0-.648l2.069-2.107c.175-.179.46-.179.636 0a.464.464 0 0 1 0 .648L3.057 19.07a.444.444 0 0 1-.319.134"/><path d="M4.807 19.204a.444.444 0 0 1-.319-.134L2.42 16.963a.464.464 0 0 1 0-.648c.176-.179.46-.179.637 0l2.068 2.107c.176.179.176.469 0 .648a.444.444 0 0 1-.318.134M12.103 11.066H9.785a.454.454 0 0 1-.45-.458c0-.253.201-.458.45-.458h2.318c.249 0 .45.205.45.458a.454.454 0 0 1-.45.458M12.403 17.296H9.485a.454.454 0 0 1-.45-.458c0-.253.201-.458.45-.458h2.918c.249 0 .45.205.45.458a.454.454 0 0 1-.45.458M12.403 19.005H9.485a.454.454 0 0 1-.45-.458c0-.254.201-.459.45-.459h2.918c.249 0 .45.205.45.459a.454.454 0 0 1-.45.458"/></g></svg>