<svg width="119" height="112" viewBox="0 0 119 112" xmlns="http://www.w3.org/2000/svg"><title>chart</title><g fill="none" fill-rule="evenodd"><path d="M16.174 111.539a2.243 2.243 0 0 1-2.242-2.246V2.471A2.244 2.244 0 0 1 16.174.223a2.244 2.244 0 0 1 2.242 2.248v106.822a2.243 2.243 0 0 1-2.242 2.246" fill="#52585A"/><path d="M16.174 111.539a2.243 2.243 0 0 1-2.242-2.246V2.471A2.244 2.244 0 0 1 16.174.223a2.244 2.244 0 0 1 2.242 2.248v106.822a2.243 2.243 0 0 1-2.242 2.246"/><path d="M8.574 102.304H2.467a2.244 2.244 0 0 1-2.243-2.245 2.244 2.244 0 0 1 2.243-2.248h6.107a2.244 2.244 0 0 1 2.243 2.248 2.244 2.244 0 0 1-2.243 2.245" fill="#52585A"/><path d="M8.574 102.304H2.467a2.244 2.244 0 0 1-2.243-2.245 2.244 2.244 0 0 1 2.243-2.248h6.107a2.244 2.244 0 0 1 2.243 2.248 2.244 2.244 0 0 1-2.243 2.245"/><path d="M116.612 102.304H24.149a2.244 2.244 0 0 1-2.243-2.245 2.244 2.244 0 0 1 2.243-2.248h92.463a2.244 2.244 0 0 1 2.242 2.248 2.244 2.244 0 0 1-2.242 2.245" fill="#52585A"/><path d="M116.612 102.304H24.149a2.244 2.244 0 0 1-2.243-2.245 2.244 2.244 0 0 1 2.243-2.248h92.463a2.244 2.244 0 0 1 2.242 2.248 2.244 2.244 0 0 1-2.242 2.245"/><path d="M24.15 94.747a2.25 2.25 0 0 1-1.706-.786 2.253 2.253 0 0 1-.09-2.807l22.279-29.81a2.252 2.252 0 0 1 1.737-.899 2.2 2.2 0 0 1 1.782.81l6.214 7.464L78.62 40.378a2.243 2.243 0 0 1 2.95-.405l8.794 5.886 14.572-20.706a2.245 2.245 0 1 1 3.668 2.589L92.77 50.238a2.245 2.245 0 0 1-3.08.574l-8.96-5.997-24.687 28.848c-.428.5-1.087.751-1.718.784a2.235 2.235 0 0 1-1.707-.81l-6.095-7.323-14.597 19.53 13.953-7.385a2.237 2.237 0 0 1 2.697.463l5.944 6.448 21.781-18.787a2.244 2.244 0 0 1 2.848-.066l9.022 7.081 18.476-18.14a2.242 2.242 0 0 1 3.172.03 2.25 2.25 0 0 1-.032 3.176l-19.883 19.52c-.802.79-2.067.86-2.953.166l-9.118-7.157L55.806 90.19a2.239 2.239 0 0 1-3.113-.18l-6.242-6.774-21.253 11.25c-.333.176-.693.26-1.047.26" fill="#52585A"/><path d="M24.15 94.747a2.25 2.25 0 0 1-1.706-.786 2.253 2.253 0 0 1-.09-2.807l22.279-29.81a2.252 2.252 0 0 1 1.737-.899 2.2 2.2 0 0 1 1.782.81l6.214 7.464L78.62 40.378a2.243 2.243 0 0 1 2.95-.405l8.794 5.886 14.572-20.706a2.245 2.245 0 1 1 3.668 2.589L92.77 50.238a2.245 2.245 0 0 1-3.08.574l-8.96-5.997-24.687 28.848c-.428.5-1.087.751-1.718.784a2.235 2.235 0 0 1-1.707-.81l-6.095-7.323-14.597 19.53 13.953-7.385a2.237 2.237 0 0 1 2.697.463l5.944 6.448 21.781-18.787a2.244 2.244 0 0 1 2.848-.066l9.022 7.081 18.476-18.14a2.242 2.242 0 0 1 3.172.03 2.25 2.25 0 0 1-.032 3.176l-19.883 19.52c-.802.79-2.067.86-2.953.166l-9.118-7.157L55.806 90.19a2.239 2.239 0 0 1-3.113-.18l-6.242-6.774-21.253 11.25c-.333.176-.693.26-1.047.26"/><path d="M56.897 19.197H28.598a2.246 2.246 0 1 1 0-4.493h28.299a2.244 2.244 0 0 1 2.242 2.248 2.243 2.243 0 0 1-2.242 2.245" fill="#52585A"/><path d="M56.897 19.197H28.598a2.246 2.246 0 1 1 0-4.493h28.299a2.244 2.244 0 0 1 2.242 2.248 2.243 2.243 0 0 1-2.242 2.245"/><path d="M56.897 27.303H28.598a2.246 2.246 0 1 1 0-4.493h28.299a2.244 2.244 0 0 1 2.242 2.247 2.243 2.243 0 0 1-2.242 2.246" fill="#52585A"/><path d="M56.897 27.303H28.598a2.246 2.246 0 1 1 0-4.493h28.299a2.244 2.244 0 0 1 2.242 2.247 2.243 2.243 0 0 1-2.242 2.246"/><path d="M44.934 35.408H28.598a2.246 2.246 0 1 1 0-4.493h16.336a2.244 2.244 0 0 1 2.242 2.248 2.243 2.243 0 0 1-2.242 2.245" fill="#52585A"/><path d="M44.934 35.408H28.598a2.246 2.246 0 1 1 0-4.493h16.336a2.244 2.244 0 0 1 2.242 2.248 2.243 2.243 0 0 1-2.242 2.245"/><path d="M77.766 25.12a2.243 2.243 0 0 1-2.242-2.246V6.399a2.243 2.243 0 1 1 4.485 0v16.475a2.243 2.243 0 0 1-2.243 2.246" fill="#52585A"/><path d="M77.766 25.12a2.243 2.243 0 0 1-2.242-2.246V6.399a2.243 2.243 0 1 1 4.485 0v16.475a2.243 2.243 0 0 1-2.243 2.246"/><path d="M85.991 16.882h-16.45a2.243 2.243 0 0 1-2.243-2.246 2.244 2.244 0 0 1 2.243-2.247h16.45a2.244 2.244 0 0 1 2.243 2.247 2.243 2.243 0 0 1-2.243 2.246" fill="#52585A"/><path d="M85.991 16.882h-16.45a2.243 2.243 0 0 1-2.243-2.246 2.244 2.244 0 0 1 2.243-2.247h16.45a2.244 2.244 0 0 1 2.243 2.247 2.243 2.243 0 0 1-2.243 2.246"/><path d="M111.213 63.98a2.245 2.245 0 0 1-2.242-2.21l-.081-5.484h-5.359a2.244 2.244 0 0 1-2.242-2.246 2.243 2.243 0 0 1 2.242-2.245h7.57c1.224 0 2.224.984 2.242 2.211l.112 7.695a2.244 2.244 0 0 1-2.206 2.28h-.036z" fill="#52585A"/><path d="M111.213 63.98a2.245 2.245 0 0 1-2.242-2.21l-.081-5.484h-5.359a2.244 2.244 0 0 1-2.242-2.246 2.243 2.243 0 0 1 2.242-2.245h7.57c1.224 0 2.224.984 2.242 2.211l.112 7.695a2.244 2.244 0 0 1-2.206 2.28h-.036z"/><path d="M110.068 33.15a2.243 2.243 0 0 1-2.22-1.95l-.713-5.437-5.323.62a2.25 2.25 0 0 1-2.488-1.971 2.249 2.249 0 0 1 1.968-2.493l7.519-.874a2.242 2.242 0 0 1 2.482 1.937l1.002 7.63a2.243 2.243 0 0 1-2.227 2.539" fill="#52585A"/><path d="M110.068 33.15a2.243 2.243 0 0 1-2.22-1.95l-.713-5.437-5.323.62a2.25 2.25 0 0 1-2.488-1.971 2.249 2.249 0 0 1 1.968-2.493l7.519-.874a2.242 2.242 0 0 1 2.482 1.937l1.002 7.63a2.243 2.243 0 0 1-2.227 2.539"/></g></svg>