<svg width="13" height="15" viewBox="0 0 13 15" xmlns="http://www.w3.org/2000/svg"><title>Fill 1</title><path d="M9.192 7.058a.625.625 0 0 0-.884 0L6.875 8.491V.625a.625.625 0 0 0-1.25 0v7.866L4.192 7.058a.625.625 0 1 0-.884.884l2.5 2.5a.625.625 0 0 0 .884 0l2.5-2.5a.625.625 0 0 0 0-.884M12.5 4.375v8.75c0 1.036-.84 1.875-1.875 1.875h-8.75A1.875 1.875 0 0 1 0 13.125v-8.75C0 3.339.84 2.5 1.875 2.5h2.5v1.25h-2.5a.625.625 0 0 0-.625.625v8.75c0 .345.28.625.625.625h8.75c.345 0 .625-.28.625-.625v-8.75a.625.625 0 0 0-.625-.625h-2.5V2.5h2.5c1.036 0 1.875.84 1.875 1.875" fill="#007CBC" fill-rule="evenodd"/></svg>