<svg width="15" height="21" viewBox="0 0 15 21" xmlns="http://www.w3.org/2000/svg"><title>icon</title><g fill="#464646" stroke="#464646" stroke-width=".25" fill-rule="evenodd"><path d="M4.562 19.418a.416.416 0 0 1-.107-.819l6.115-1.64a.416.416 0 1 1 .216.803L4.67 19.404a.416.416 0 0 1-.109.014M4.562 17.574a.417.417 0 0 1-.107-.82l6.115-1.64a.417.417 0 1 1 .216.805l-6.115 1.64a.428.428 0 0 1-.109.015M6.506 20.795a.417.417 0 0 1-.108-.819l2.228-.598a.417.417 0 0 1 .216.805l-2.227.598a.416.416 0 0 1-.109.014"/><path d="M10.256 15.874a.417.417 0 0 1-.417-.417c0-1.299.552-2.544 1.513-3.416l.058-.052a5.805 5.805 0 0 0 1.997-4.369A5.793 5.793 0 0 0 7.62 1.833 5.793 5.793 0 0 0 1.833 7.62c0 1.62.688 3.177 1.887 4.274l.15.137a5.788 5.788 0 0 0 4.296 1.364l1.546-6.153-.368-.23-.651.394c-.134.08-.3.08-.433-.001l-.646-.394-.65.395a.418.418 0 0 1-.437-.002l-.632-.391-.376.23 1.282 5.05a.417.417 0 0 1-.808.205L4.635 7.153a.417.417 0 0 1 .185-.458l.857-.526a.416.416 0 0 1 .437 0l.634.393.65-.394c.133-.081.3-.08.432 0l.647.395.654-.396a.416.416 0 0 1 .437.003l.842.527c.153.096.227.28.183.455L8.91 13.852c-.041.165-.183.312-.35.336a6.6 6.6 0 0 1-5.25-1.539l-.135-.126A6.652 6.652 0 0 1 1 7.62C1 3.97 3.97 1 7.62 1s6.62 2.97 6.62 6.62a6.643 6.643 0 0 1-2.159 4.889l-.026.023-.09.078-.054.049a3.786 3.786 0 0 0-1.238 2.798c0 .23-.187.417-.417.417"/></g></svg>