<?xml version="1.0" encoding="UTF-8"?>
<svg width="20px" height="18px" viewBox="0 0 20 18" version="1.1" xmlns="http://www.w3.org/2000/svg" xmlns:xlink="http://www.w3.org/1999/xlink">
    <!-- Generator: Sketch 49.3 (51167) - http://www.bohemiancoding.com/sketch -->
    <title>Group</title>
    <desc>Created with Sketch.</desc>
    <defs></defs>
    <g id="comps" stroke="none" stroke-width="1" fill="none" fill-rule="evenodd">
        <g id="project-profitability" transform="translate(-155.000000, -269.000000)" fill="#464646" stroke="#464646" stroke-width="0.25">
            <g id="note" transform="translate(120.000000, 248.000000)">
                <g id="icon" transform="translate(36.000000, 22.000000)">
                    <g id="Group">
                        <path d="M5.62708212,13 L3.37291788,13 C3.1668186,13 3,12.776 3,12.5 C3,12.224 3.1668186,12 3.37291788,12 L5.62708212,12 C5.8331814,12 6,12.224 6,12.5 C6,12.776 5.8331814,13 5.62708212,13" id="Fill-1"></path>
                        <path d="M4.65164886,15 L3.34835114,15 C3.15582908,15 3,14.776 3,14.5 C3,14.224 3.15582908,14 3.34835114,14 L4.65164886,14 C4.84417092,14 5,14.224 5,14.5 C5,14.776 4.84417092,15 4.65164886,15" id="Fill-3"></path>
                        <path d="M6.66685537,16 L4.65754904,16 C4.5107433,16 4.38126109,15.9049466 4.33861857,15.7666472 L3.01447971,11.4552173 C2.96095447,11.2811357 3.06045366,11.097395 3.23657613,11.04449 C3.41292069,10.992024 3.5985933,11.0901507 3.65211853,11.2640129 L4.90452026,15.3414313 L6.33371073,15.3414313 L6.33371073,10.3292844 C6.33371073,10.1475194 6.48273743,10 6.66685537,10 C6.8509733,10 7,10.1475194 7,10.3292844 L7,15.6707156 C7,15.8524806 6.8509733,16 6.66685537,16" id="Fill-5"></path>
                        <path d="M1.66117009,10 L0.338829907,10 C0.151569912,10 0,9.84509704 0,9.65423448 L0,5.34576552 C0,5.15467244 0.151569912,5 0.338829907,5 L1.66117009,5 C1.84843009,5 2,5.15467244 2,5.34576552 C2,5.53662809 1.84843009,5.69153105 1.66117009,5.69153105 L0.677659815,5.69153105 L0.677659815,9.30846895 L1.66117009,9.30846895 C1.84843009,9.30846895 2,9.46337191 2,9.65423448 C2,9.84509704 1.84843009,10 1.66117009,10" id="Fill-7"></path>
                        <path d="M17.6402446,14 L16.3597554,14 C16.1609306,14 16,13.8581573 16,13.6833869 C16,13.5086164 16.1609306,13.3667737 16.3597554,13.3667737 L17.2804893,13.3667737 L17.2804893,0.633226288 L16.3597554,0.633226288 C16.1609306,0.633226288 16,0.491383599 16,0.316613144 C16,0.141842688 16.1609306,0 16.3597554,0 L17.6402446,0 C17.8390694,0 18,0.141842688 18,0.316613144 L18,13.6833869 C18,13.8581573 17.8390694,14 17.6402446,14" id="Fill-9"></path>
                        <path d="M14.689531,13 C14.64917,13 14.6088091,12.9919712 14.5705179,12.9759137 L7.19149796,9.85018918 C7.03315877,9.78300111 6.95802528,9.59749441 7.0238447,9.43586271 C7.08966413,9.27401974 7.27139198,9.19732392 7.42952418,9.26451199 L14.379062,12.2085329 L14.379062,1.79142314 L8.78275501,4.16223259 C8.62441583,4.22920938 8.44268798,4.15272484 8.37707553,3.99088186 C8.31125611,3.82925017 8.3863896,3.64374347 8.54493577,3.57655539 L14.5705179,1.02404235 C14.6661423,0.98389853 14.7756344,0.994251409 14.8619448,1.05341072 C14.9482552,1.11214747 15,1.21102803 15,1.31688094 L15,12.6830751 C15,12.788928 14.9482552,12.8878086 14.8619448,12.9465453 C14.8102,12.9820409 14.749969,13 14.689531,13" id="Fill-12"></path>
                        <path d="M1.68551283,10.3320186 L7.31471568,10.3320186 L7.31471568,4.66820408 L1.68551283,4.66820408 L1.68551283,10.3320186 Z M7.65724359,11 L1.34275641,11 C1.15332637,11 1,10.8501495 1,10.6660093 L1,4.33399071 C1,4.14962784 1.15332637,4 1.34275641,4 L7.65724359,4 C7.84667363,4 8,4.14962784 8,4.33399071 L8,10.6660093 C8,10.8501495 7.84667363,11 7.65724359,11 Z" id="Fill-14"></path>
                        <path d="M6.68847352,7 L3.31152648,7 C3.13956386,7 3,6.776 3,6.5 C3,6.224 3.13956386,6 3.31152648,6 L6.68847352,6 C6.86064382,6 7,6.224 7,6.5 C7,6.776 6.86064382,7 6.68847352,7" id="Fill-16"></path>
                    </g>
                </g>
            </g>
        </g>
    </g>
</svg>