<svg width="15" height="15" viewBox="0 0 15 15" xmlns="http://www.w3.org/2000/svg"><title>Page 1</title><path d="M13.75 12.5c0 .345-.28.625-.625.625H1.875a.626.626 0 0 1-.625-.625v-1.235c0-.146.36-.616 1.43-1.065 1.25-.524 3.007-.825 4.82-.825 1.812 0 3.568.302 4.82.827 1.07.45 1.43.921 1.43 1.068v1.23zM5 5.625V3.75a2.5 2.5 0 0 1 5 0v1.875a2.5 2.5 0 0 1-5 0zm5.105 2.696a3.738 3.738 0 0 0 1.145-2.696V3.75a3.75 3.75 0 1 0-7.5 0v1.875c0 1.058.44 2.014 1.145 2.696C2.037 8.766 0 9.92 0 11.265V12.5c0 1.036.84 1.875 1.875 1.875h11.25c1.036 0 1.875-.84 1.875-1.875v-1.23c0-1.345-2.037-2.503-4.895-2.949z" fill="#FFF" fill-rule="evenodd"/></svg>