<svg width="109" height="110" viewBox="0 0 109 110" xmlns="http://www.w3.org/2000/svg"><title>piggy-bank</title><g fill="#52585A" fill-rule="evenodd"><path d="M49.955 109.37h-14.73c-1.232 0-2.23-.984-2.23-2.2v-4.042c0-1.216.998-2.2 2.23-2.2 1.231 0 2.23.984 2.23 2.2v1.842h10.27v-.496c0-1.216.998-2.2 2.23-2.2s2.23.984 2.23 2.2v2.696c0 1.216-.998 2.2-2.23 2.2M88.252 109.37h-14.73c-1.232 0-2.23-.984-2.23-2.2v-3.146c0-1.216.998-2.2 2.23-2.2 1.231 0 2.23.984 2.23 2.2v.946h10.27v-3.086c0-1.217.998-2.2 2.23-2.2 1.233 0 2.23.983 2.23 2.2v5.286c0 1.216-.997 2.2-2.23 2.2M19.906 36.784c-1.232 0-2.23-.984-2.23-2.2V15.547c0-1.204.978-2.184 2.197-2.2.11-.009.217-.015.327-.015 5.435 0 10.672 2.253 14.372 6.184a2.18 2.18 0 0 1-.116 3.11 2.257 2.257 0 0 1-3.153-.115 15.266 15.266 0 0 0-9.167-4.656v16.73c0 1.215-.998 2.2-2.23 2.2"/><path d="M71.165 97.956H45.242c-3.786 0-7.524-.554-11.108-1.65C24.61 93.398 16.6 86.79 11.967 78.07H7.008c-.67 0-1.306-.298-1.729-.808a2.182 2.182 0 0 1-.454-1.835l.76-3.632H2.23c-1.232 0-2.23-.984-2.23-2.2V49.248c0-1.214.998-2.2 2.23-2.2h7.682c2.731-7.406 7.847-13.836 14.543-18.23a2.248 2.248 0 0 1 3.09.614 2.179 2.179 0 0 1-.621 3.05c-6.308 4.141-11.027 10.329-13.284 17.426a2.23 2.23 0 0 1-2.128 1.54H4.459v15.947h3.865c.67 0 1.305.298 1.729.813.42.51.588 1.185.451 1.835l-.758 3.627h3.598c.859 0 1.64.487 2.01 1.254 3.983 8.23 11.31 14.495 20.101 17.182a33.465 33.465 0 0 0 9.787 1.45h25.923a33.469 33.469 0 0 0 9.65-1.408 33.245 33.245 0 0 0 6.66-2.822c10.37-5.799 16.812-16.7 16.812-28.449v-1.163a32.408 32.408 0 0 0-8.106-21.422 2.18 2.18 0 0 1 .222-3.103 2.252 2.252 0 0 1 3.145.22 36.771 36.771 0 0 1 9.198 24.305v1.163c0 13.33-7.309 25.698-19.073 32.279a37.709 37.709 0 0 1-7.562 3.202 37.97 37.97 0 0 1-10.946 1.598"/><path d="M28.743 59.006c-1.232 0-2.23-.984-2.23-2.2 0-1.672-1.377-3.031-3.072-3.031-1.694 0-3.072 1.36-3.072 3.031 0 1.216-1 2.2-2.23 2.2-1.232 0-2.23-.984-2.23-2.2 0-4.098 3.379-7.431 7.532-7.431 4.153 0 7.532 3.333 7.532 7.431 0 1.216-.997 2.2-2.23 2.2M47.57 44.473c-.43 0-.864-.122-1.247-.377a2.182 2.182 0 0 1-.596-3.055 14.744 14.744 0 0 0 2.586-8.36c0-7.597-5.77-13.888-13.216-14.828v24.42c0 1.216-.998 2.2-2.23 2.2-1.23 0-2.23-.984-2.23-2.2V15.546c0-1.201.981-2.181 2.197-2.2.112-.009.217-.015.33-.015 10.812 0 19.609 8.681 19.609 19.35 0 3.88-1.158 7.622-3.354 10.824a2.236 2.236 0 0 1-1.85.968M77.602 4.4c-8.897 0-16.135 7.141-16.135 15.92s7.238 15.92 16.135 15.92c8.896 0 16.137-7.141 16.137-15.92S86.499 4.4 77.602 4.4m0 36.24c-11.357 0-20.594-9.115-20.594-20.32C57.008 9.115 66.245 0 77.602 0 88.96 0 98.198 9.116 98.198 20.32c0 11.205-9.238 20.32-20.596 20.32"/><path d="M77.573 29.802c-1.233 0-2.23-.984-2.23-2.2V16.339l-1.988 2.036a2.25 2.25 0 0 1-3.152.057 2.18 2.18 0 0 1-.06-3.11l5.824-5.962a2.251 2.251 0 0 1 2.44-.514 2.2 2.2 0 0 1 1.395 2.04v16.716c0 1.216-.997 2.2-2.23 2.2"/><path d="M81.476 29.745h-7.9c-1.233 0-2.229-.985-2.229-2.2 0-1.215.996-2.2 2.23-2.2h7.899c1.232 0 2.23.985 2.23 2.2 0 1.215-.998 2.2-2.23 2.2"/></g></svg>