<svg width="25" height="22" viewBox="0 0 25 22" xmlns="http://www.w3.org/2000/svg"><title>results</title><g fill="#1C191A" fill-rule="evenodd"><path d="M24.432 21.951H.487A.483.483 0 0 1 0 21.473c0-.265.218-.478.487-.478h23.945c.269 0 .487.213.487.478a.483.483 0 0 1-.487.478M11.85 1.078H3.49a.483.483 0 0 1-.487-.479c0-.264.218-.478.487-.478h8.36c.27 0 .488.214.488.478a.483.483 0 0 1-.487.479M7.955 2.99H3.49a.483.483 0 0 1-.487-.478c0-.264.218-.478.487-.478h4.465c.268 0 .487.214.487.478a.483.483 0 0 1-.487.479M5.357 4.904H3.49a.483.483 0 0 1-.487-.479c0-.264.218-.478.487-.478h1.867c.269 0 .487.214.487.478a.483.483 0 0 1-.487.479M.487 18.866a.493.493 0 0 1-.344-.14.475.475 0 0 1 0-.677.339.339 0 0 1 .075-.057.42.42 0 0 1 .084-.045.468.468 0 0 1 .37 0c.03.013.059.026.084.045a.436.436 0 0 1 .075.057.469.469 0 0 1-.075.737.702.702 0 0 1-.084.044.294.294 0 0 1-.09.026.446.446 0 0 1-.095.01M0 3.462c0-.264.218-.478.487-.478.27 0 .487.214.487.478a.482.482 0 0 1-.487.479A.482.482 0 0 1 0 3.462m0 2.985c0-.262.218-.478.487-.478.27 0 .487.216.487.478a.485.485 0 0 1-.487.481A.485.485 0 0 1 0 6.447m0 2.987c0-.264.218-.478.487-.478.27 0 .487.214.487.478a.482.482 0 0 1-.487.479A.482.482 0 0 1 0 9.434m0 2.985c0-.265.218-.479.487-.479.27 0 .487.214.487.479a.482.482 0 0 1-.487.478.482.482 0 0 1-.487-.478m0 2.984c0-.265.218-.478.487-.478.27 0 .487.213.487.478a.482.482 0 0 1-.487.478.482.482 0 0 1-.487-.478M.487.956a.493.493 0 0 1-.344-.14.475.475 0 0 1 0-.676.496.496 0 0 1 .688 0 .475.475 0 0 1 0 .676C.808.838.782.857.756.876a.702.702 0 0 1-.084.045c-.03.01-.058.02-.09.026a.446.446 0 0 1-.095.01M5.302 17.753h3.194V9.357H5.302v8.396zm3.648.892H4.847a.45.45 0 0 1-.454-.446V8.91a.45.45 0 0 1 .454-.446H8.95c.251 0 .455.2.455.446v9.29a.45.45 0 0 1-.455.445zM12.364 17.721h3.13v-4.91h-3.13v4.91zm3.616.956h-4.103a.482.482 0 0 1-.487-.478v-5.866c0-.264.218-.479.487-.479h4.103c.269 0 .487.215.487.479v5.866a.483.483 0 0 1-.487.478zM19.334 17.721h3.129V2.653h-3.13V17.72zm3.616.956h-4.103a.483.483 0 0 1-.487-.478V2.175c0-.265.218-.479.487-.479h4.103c.269 0 .487.214.487.479v16.024a.483.483 0 0 1-.487.478z"/></g></svg>