<svg width="15" height="15" viewBox="0 0 15 15" xmlns="http://www.w3.org/2000/svg"><title>Page 1</title><path d="M12 13.5a1.5 1.5 0 1 1 0-3 1.5 1.5 0 0 1 0 3M3 9a1.5 1.5 0 1 1 0-3 1.5 1.5 0 0 1 0 3m9-7.5a1.5 1.5 0 1 1 0 3 1.5 1.5 0 0 1 0-3M12 9c-.902 0-1.71.4-2.26 1.031L5.933 8.128a3.015 3.015 0 0 0 0-1.256L9.74 4.969A2.991 2.991 0 0 0 12 6a3 3 0 1 0-2.933-2.372L5.26 5.531A2.99 2.99 0 0 0 3 4.5a3 3 0 0 0 0 6c.903 0 1.71-.4 2.26-1.031l3.807 1.903A3 3 0 1 0 12 9" fill="#FFF" fill-rule="evenodd"/></svg>