<?xml version="1.0" encoding="UTF-8"?>
<svg width="15px" height="15px" viewBox="0 0 15 15" version="1.1" xmlns="http://www.w3.org/2000/svg" xmlns:xlink="http://www.w3.org/1999/xlink">
    <!-- Generator: Sketch 49.3 (51167) - http://www.bohemiancoding.com/sketch -->
    <title>Fill 1</title>
    <desc>Created with Sketch.</desc>
    <defs></defs>
    <g id="comps" stroke="none" stroke-width="1" fill="none" fill-rule="evenodd">
        <g id="project-profitability" transform="translate(-422.000000, -271.000000)" fill="#464646">
            <g id="note" transform="translate(120.000000, 248.000000)">
                <path d="M312.06046,29.7404099 C311.91046,29.9535077 311.580623,30.2181273 311.165026,30.5419316 L310.707363,30.8579099 C310.456113,31.053236 310.304319,31.236986 310.24758,31.4178012 C310.20258,31.5601381 310.180732,31.5978012 310.176819,31.8873664 L310.176167,31.960899 L308.428667,31.960899 L308.433721,31.8130186 C308.45508,31.2050294 308.47008,30.8476381 308.721982,30.5522033 C309.1172,30.0881816 309.988993,29.5268229 310.025841,29.5030186 C310.150895,29.4089425 310.256221,29.3018229 310.334645,29.1873664 C310.518069,28.934486 310.599265,28.7354099 310.599265,28.5397577 C310.599265,28.2682903 310.518721,28.0172033 310.359428,27.7936707 C310.20633,27.5779642 309.91546,27.4687251 309.494808,27.4687251 C309.07758,27.4687251 308.791928,27.6011164 308.621058,27.8727468 C308.445297,28.1520403 308.356439,28.4453555 308.356439,28.7450294 L308.356439,28.8195403 L306.554645,28.8195403 L306.557906,28.7417686 C306.604373,27.6381273 306.998286,26.8434533 307.728232,26.3797577 C308.186873,26.084486 308.757526,25.934812 309.423395,25.934812 C310.295026,25.934812 311.030841,26.1466055 311.610134,26.5643229 C312.197091,26.9875838 312.494808,27.6214968 312.494808,28.4484533 C312.494808,28.9110077 312.348721,29.3455186 312.06046,29.7404099 M309.37758,35.0652468 L309.336167,35.0645946 C308.698341,35.0456816 308.248667,34.5757903 308.266765,33.9474207 C308.284536,33.329812 308.745134,32.8814425 309.361928,32.8814425 L309.398939,32.8820946 C310.054536,32.9014968 310.499156,33.3666599 310.480732,34.0131273 C310.462471,34.6325294 310.009047,35.0652468 309.37758,35.0652468 M309.399754,23.0006816 C305.25796,23.0561164 301.945569,26.4589968 302.000678,30.6009533 C302.056113,34.7411164 305.458667,38.054486 309.600297,37.9993773 C313.741276,37.9436164 317.054319,34.5405729 316.99921,30.3991055 C316.943776,26.2586164 313.541058,22.9454099 309.399754,23.0006816" id="Fill-1"></path>
            </g>
        </g>
    </g>
</svg>