<svg width="15" height="15" viewBox="0 0 15 15" xmlns="http://www.w3.org/2000/svg"><title>icon</title><path d="M10.06 6.74c-.15.214-.48.478-.895.802l-.458.316c-.25.195-.403.379-.46.56-.044.142-.066.18-.07.47v.073H6.428l.005-.148c.021-.608.036-.965.288-1.26.395-.465 1.267-1.026 1.304-1.05.125-.094.23-.201.309-.316.183-.253.264-.452.264-.647 0-.272-.08-.523-.24-.746-.153-.216-.444-.325-.864-.325-.417 0-.703.132-.874.404-.176.279-.265.572-.265.872v.075H4.555l.003-.078c.046-1.104.44-1.899 1.17-2.362.459-.296 1.03-.445 1.695-.445.872 0 1.608.212 2.187.63.587.423.885 1.056.885 1.883 0 .463-.146.898-.435 1.292m-2.682 5.325h-.042c-.638-.02-1.087-.49-1.07-1.118a1.066 1.066 0 0 1 1.096-1.066l.037.001c.656.02 1.1.485 1.082 1.131-.019.62-.472 1.052-1.103 1.052M7.4.001a7.5 7.5 0 1 0 .202 15A7.5 7.5 0 0 0 7.4 0" fill="#D1D1D1" fill-rule="evenodd"/></svg>